<?xml version="1.0" standalone="no"?>
<!DOCTYPE svg PUBLIC "-//W3C//DTD SVG 1.1//EN" "http://www.w3.org/Graphics/SVG/1.1/DTD/svg11.dtd" >
<svg xmlns="http://www.w3.org/2000/svg">
<metadata></metadata>
<defs>
<font id="ruffle_beautyregular" horiz-adv-x="1130" >
<font-face units-per-em="2048" ascent="1536" descent="-512" />
<missing-glyph horiz-adv-x="616" />
<glyph horiz-adv-x="0" />
<glyph horiz-adv-x="682" />
<glyph horiz-adv-x="0" />
<glyph horiz-adv-x="0" />
<glyph unicode="&#xd;" horiz-adv-x="616" />
<glyph unicode=" "  horiz-adv-x="616" />
<glyph unicode="&#x09;" horiz-adv-x="616" />
<glyph unicode="&#xa0;" horiz-adv-x="616" />
<glyph unicode="!" horiz-adv-x="362" d="M59 1245q1 10 4.5 26t4.5 23q3 13 11.5 22t18.5 9q11 2 23.5 -4t15.5 -16q4 -18 13.5 -49.5t13.5 -45.5q2 -8 4 -25t2 -18q21 -90 33 -176q43 -300 43 -780q0 -15 -10.5 -26t-24.5 -11q-15 0 -26 11t-11 26q0 182 -2 274q-6 195 -27 389q-8 71 -12 91q-7 57 -14 96 q-21 115 -21 121l-8 24q-8 0 -16 -1t-12.5 8.5t-2.5 31.5zM195 31q0 14 10.5 24.5t25.5 10.5q13 0 24 -11t11 -24q0 -15 -10.5 -26t-24.5 -11q-15 0 -25.5 11t-10.5 26z" />
<glyph unicode="&#x22;" horiz-adv-x="370" d="M49 1446q0 16 11.5 30t25.5 11q5 0 15 -1t16 -1q18 -4 24 -17q11 -11 11 -28q0 -43 -19 -62q-3 -3 -12 -20t-19.5 -28t-23.5 -7q-12 4 -19 35t-8.5 52.5t-1.5 35.5zM219 1438q0 16 11.5 30t25.5 11q5 0 15 -1t16 -1q18 -4 24 -17q11 -11 11 -28q0 -43 -19 -62 q-3 -3 -12 -20t-19.5 -28t-23.5 -7q-12 4 -19 35t-8.5 52.5t-1.5 35.5z" />
<glyph unicode="#" horiz-adv-x="1425" d="M137 897q2 11 11.5 20.5t19.5 8.5q35 -2 98 -2q9 -1 43 -11q82 -8 176 -24q15 -3 45 -9.5t45 -9.5q13 40 17 58q25 103 33 119l4 26q-21 5 -23 14q-3 10 10 33l29 41q8 11 20 15t21 0q11 -3 19.5 -14t7.5 -21q-2 -13 -8 -46.5t-9 -50.5q-1 -8 -6 -22.5t-6 -17.5 q-15 -76 -39 -150q131 -31 283 -76q1 3 3 9.5t3 9.5l29 92l32 119l4 26q-13 3 -17.5 5t-5.5 12.5t11 29.5l29 41q6 9 18 14t21 1q12 -1 20.5 -12.5t5.5 -22.5q-3 -16 -7 -48t-7 -48q-2 -16 -14 -43q-15 -74 -45 -172q-2 -5 -5.5 -16.5t-5.5 -16.5q40 -14 121 -40.5 t121 -39.5q13 -4 20.5 -17.5t4.5 -25.5q-6 -15 -20 -22t-27 -1q-173 57 -242 78q-49 -143 -101 -266q135 -39 367 -117q15 -4 22.5 -17.5t2.5 -27.5t-18.5 -20t-28.5 -2q-38 13 -81.5 27t-96.5 31.5t-83 27.5q-19 5 -56.5 16t-55.5 16q-49 -117 -131 -292q-6 -12 -20 -18 t-25 -1q-15 8 -20.5 22.5t1.5 26.5q86 185 113 250q5 8 14 31q-49 13 -196 49q-7 1 -37.5 7.5t-48.5 8.5q-24 -60 -150 -338q-7 -13 -21 -18t-26 0q-14 8 -19 21.5t1 27.5q76 163 114 250q5 12 15.5 35.5t15.5 34.5q-20 4 -29 4q-13 2 -44.5 7t-54 8.5t-24.5 4.5h-24 q-5 -20 -12 -22q-10 -4 -35 6l-43 22q-27 20 -21 39q2 11 11.5 21t21.5 10q16 -1 48 -2t48 -2q9 -1 23 -4t20 -4q22 -2 46 -5t52.5 -7.5t43.5 -6.5q48 115 84 224q4 11 9.5 29.5t8.5 25.5q-49 9 -66 10l-96 18l-121 19l-26 2q-1 -10 -2 -13.5t-5 -8.5t-14 -3t-26 9l-43 22 q-11 6 -16.5 17.5t-2.5 21.5zM524 510q139 -27 283 -68q44 106 100 267q0 2 2 2q-96 29 -284 75q-36 -115 -101 -276z" />
<glyph unicode="$" horiz-adv-x="1855" d="M115 1249q12 37 39 64q48 46 143 57q78 10 186 -4q140 -19 265 -55q-18 49 -31 78q0 2 -4 10l-2 4l-6 18q-3 5 -8.5 16.5t-8.5 16.5q-5 12 -16.5 34.5t-16.5 33.5q-8 13 -4 27.5t17 21.5q12 7 26.5 3.5t22.5 -15.5q60 -112 117 -275q15 -5 43 -15.5t43 -15.5 q118 -48 182 -82q86 -48 115 -81q9 -11 9.5 -25t-9.5 -25q-11 -10 -27 -10t-25 10q-2 2 -6 6.5t-6 6.5q-4 2 -8 6q-1 1 -3 2t-3 2q-14 12 -37 27q-31 17 -74 38q-7 3 -21.5 10.5t-21.5 10.5q-4 2 -11 5t-11 5q-5 0 -9 4q-1 0 -4 1t-4 1q-49 20 -86 33q60 -203 123 -571 q37 -15 78 -27q50 -17 202 -65.5t254 -85.5t197 -80q17 -10 17 -31t-17 -31q-75 -55 -194 -102q-189 -72 -455 -99q14 -75 27 -131q3 -14 -4.5 -27t-20.5 -16q-14 -5 -28 2.5t-17 22.5q-5 23 -14.5 71.5t-14.5 71.5q-21 0 -61 -4q-111 -7 -313 -11t-275 -7q-15 0 -26 11.5 t-11 25.5q0 15 11 25t26 10q3 0 213 6q206 4 303 8q82 4 121 8q-7 53 -14 90q-39 251 -49 311q-126 48 -199 82q-176 80 -297 179q-108 87 -152 129q-110 103 -147 190q-21 55 -8 96zM182 1206q1 -4 2 -10.5t2 -9.5q4 -8 4 -10q3 -3 3 -7q2 -3 6 -10t6 -10q2 -4 7 -12.5 t7 -12.5q4 -2 8 -10q6 -6 6 -8q25 -31 80 -86q66 -64 156 -133l4 -4l-4 4l1 -1q4 -3 5 -3q4 -7 17 -15q17 -13 34 -22q49 -34 72 -47q54 -32 152 -80q7 -3 20.5 -9.5t20.5 -9.5q12 -4 18 -8q1 0 3.5 -1t4.5 -1l4 -2q46 -20 80 -33q2 0 4 -2q-19 123 -49 269q-39 172 -80 305 q-23 8 -37 10q-101 32 -217 51q-5 1 -14 2t-14 2q-7 2 -9 2h-8q-24 3 -51 6q-46 3 -92 0h-21q-4 -2 -10 -2h-4q-22 -4 -35 -8q-6 0 -18 -4q-1 0 -3 -1t-3 -1q-2 -2 -4 -2q-19 -10 -25 -14h-2q0 -1 -1 -2t-1 -2q-2 -1 -12 -11q0 -1 -1 -2t-1 -2q-1 -2 -3.5 -5t-3.5 -5v-2 q0 -1 -1 -3.5t-1 -4.5q-2 -2 -2 -8v-2v-11v-2zM995 547q18 -123 58 -369q6 1 19.5 2t19.5 2t19 2t19 2q6 2 17 2l4 2h10q168 24 285 64q37 13 65 25q2 1 7.5 3t7.5 3h4l8 4q1 1 12 5.5t17 8.5q14 6 55 29q-4 0 -4 2l-6 2q-4 0 -8 4q-57 23 -78 29q-64 25 -158 57 q-32 10 -166.5 53t-206.5 68z" />
<glyph unicode="%" horiz-adv-x="827" d="M31 850q-34 85 20 174q8 12 21.5 15.5t27.5 -3.5q12 -8 16 -22.5t-3 -26.5q-1 -1 -11 -16v-2v-2q-1 -1 -2 -4.5t-2 -4.5q-4 -12 -4 -18q-2 -2 -2 -10q-2 -6 -2 -21q0 -6 2 -8v-1v-5q0 -4 4 -16q0 -1 1 -4t1 -5q10 -15 11 -16v-2l6 -6l6 -6l4 -2q1 -1 4 -3.5t4 -3.5l8 -4 l4 -2q2 -1 6.5 -2t6.5 -2q4 0 8 -2h14h4l4 2q7 0 9 2l4 2l8 4q8 7 8 9q1 0 4 2q0 1 1 3t1 3q4 4 6 8q4 8 4 18v7v10q0 6 -2 8l-2 6q-1 2 -3 5t-3 5q-2 3 -2 5q-4 0 -4 4q-4 0 -4 4q-1 0 -3 1t-3 1q-1 1 -4 3t-4 3l-6 2q-1 0 -4.5 1t-4.5 1h-2h-6q-15 2 -26 12t-11 25 q0 14 11 25t26 10q40 0 76 -25q40 -31 51 -74q9 -45 -10 -90q-20 -41 -57 -59q-40 -18 -84 -12q-41 6 -74 33.5t-47 66.5zM84.5 77q-3.5 15 5.5 27q7 11 59.5 100t79.5 136q101 177 181 346q27 63 34 84l39 90l45 115l7 24q-12 4 -16.5 7t-4 14t13.5 29l33 36q8 9 20 13 t21 -2q11 -3 18.5 -15t4.5 -22q-5 -16 -25 -94q-2 -8 -9.5 -23.5t-8.5 -17.5q-26 -83 -64 -166q-117 -276 -368 -690q-7 -12 -22.5 -16.5t-25.5 1.5q-14 9 -17.5 24zM500 309q11 44 48 73t83 28q43 -1 77 -28.5t46 -68.5q25 -86 -33 -153q-60 -63 -150 -66q-15 0 -25.5 11 t-10.5 26q0 14 10.5 24.5t25.5 10.5h9q5 0 6 2q10 0 14 2q3 1 8.5 2t7.5 2q2 2 7 2q0 1 3 2q1 1 1.5 1t1.5 1q12 6 14 8q1 1 3 2q5 4 5 5h2q2 2 6.5 6t6.5 6l6 6q0 2 2 2q1 2 4 7t4 7l2 7q0 2 2 4q0 2 1 6t1 6v4v8v12l-2 12v1q0 1 -1 3t-1 3l-2 6q-4 4 -4 8l-4 6h-2 q-1 2 -4 5.5t-4 5.5q-1 0 -2.5 1t-2.5 1q-1 1 -3 2t-3 2l-4 2q-4 0 -6 2h-6q-2 2 -4 2h-8q-6 0 -7 -2q-2 0 -6 -1t-6 -1l-6 -2l-2 -2q-1 -1 -4 -2t-4 -2v-2h-2q-1 -1 -3 -3.5t-3 -3.5l-4 -4l-5 -10l-2 -4q-2 -4 -2 -8q0 -5 -2 -6v-6v-9v-2q1 -2 2 -7t2 -7q5 -8 7 -10 q8 -12 3 -27t-18 -22q-12 -7 -26.5 -2.5t-22.5 16.5q-26 47 -14 100z" />
<glyph unicode="&#x26;" horiz-adv-x="1189" d="M92 731q21 94 119 178q63 56 186 129q0 7 -2 11q0 117 23 223q22 117 74 184q32 44 67 60q44 20 96 14q80 -8 117 -47q35 -41 35 -97q-5 -96 -82 -190q-1 -2 -3 -5t-3 -5h-2q-1 -1 -3 -4t-3 -4q-4 -6 -15 -17q-18 -22 -34 -35q-42 -36 -93 -67q-39 -27 -100 -62 q1 -5 2 -16t2 -16v-13q0 -1 1 -4t1 -4q0 -8 2 -14q6 -32 29 -92q9 -27 14 -37q5 -15 6 -17q0 -2 2 -4q0 -4 4 -8q13 -31 33 -74q46 -100 115 -221q18 6 33 12l10 5l4 2q3 1 9 4t9 4q21 9 39 18q17 10 72 43q7 7 16 13l2 2q4 4 7 4q5 4 14 12t14 12q17 17 25 27q4 4 10 12 q4 4 4 8q13 18 17 27q1 1 3 4t3 4q0 6 4 10q6 24 6 27v8v19q-2 4 -4 12.5t-4 13.5q-10 11 -7 29.5t17 26.5q12 7 26.5 3t22.5 -16q24 -49 21 -96q-12 -124 -174 -231q-77 -52 -160 -82q1 -2 3 -6.5t3 -6.5q76 -115 92 -137q4 -5 12.5 -16.5t12.5 -16.5q2 -2 10 -14l2 -2 q1 -1 3 -4t3 -4q13 -17 47 -55q9 -11 9.5 -26t-9.5 -26q-11 -9 -26.5 -9.5t-24.5 9.5q-78 90 -141 187q-50 77 -66 104q-37 -11 -100 -22q-210 -30 -332 43q-75 49 -104 116q-46 99 -21 203zM156 633l2 -2v-2q0 -7 2 -11q0 -4 4 -20l6 -18q0 -2 1 -5.5t1 -5.5q2 0 2 -4 q3 -5 8 -15t8 -15q3 -3 11 -15h2q0 -4 4 -8q21 -21 26 -25h3l6 -6q1 -1 5.5 -4t8.5 -4q18 -11 31 -16q2 0 2 -2q2 0 5 -1t5 -1q10 -5 16 -7q11 -4 37 -8q3 -1 9.5 -2t9.5 -2h2h10q36 -5 82 -2q7 0 21.5 1t21.5 1q4 2 10 2h4q4 1 11 2t10 2q29 5 67 15q-3 5 -67 125 q-9 16 -70 147q-3 9 -14.5 36t-16.5 42q-13 26 -24 63q-15 53 -17 88l-30 -18q-30 -19 -49 -33q-11 -5 -25 -16q-4 -4 -8 -6l-6 -6q-51 -41 -76 -74l-2 -2l-4 -4q-1 -2 -3 -5.5t-3 -5.5q-2 -3 -6.5 -10t-6.5 -10t-5.5 -10.5t-4.5 -10.5l-2 -6q-4 -8 -4 -12q-4 -7 -8 -25 q0 -8 -2 -12v-6q-3 -24 0 -51zM233 487zM373 434zM469 1079q6 4 18.5 12.5t18.5 12.5q29 18 47 31q11 5 25 16q2 2 10 6q0 2 2 2q0 2 2 2q45 36 70 70l-3 -4l1 1l10 11q0 2 4 6q2 2 5 7.5t5 7.5q15 23 25 40q1 3 4 9.5t4 9.5q4 4 4 8q1 2 2 6t2 6q1 3 6 23q0 2 1 5.5t1 4.5 v2v2q3 10 0 23v4q0 4 -2 6q0 6 -2 10q0 2 -2 2q0 5 -4 9l-2 2l-6 6q-4 4 -6 4q-2 1 -5.5 3t-5.5 3h-2l-2 2q-5 1 -15 4t-15 4h-5h-4q-3 0 -8 1t-8 1h-21h-2q-1 0 -3 -1t-3 -1q-2 0 -5.5 -1t-4.5 -1q-2 -2 -6 -2q-8 -4 -10 -6q-6 -3 -9 -6q-2 0 -2 -2q-2 -2 -7 -6.5t-7 -6.5 q-1 -1 -3 -4t-3 -4l-2 -2q-2 -3 -6 -8t-6 -8q-1 -2 -9 -17.5t-12 -23.5q-2 -2 -2 -4q-1 -2 -2 -6.5t-2 -6.5q0 -1 -3.5 -9t-4.5 -13q-17 -57 -25 -102q0 -11 -2 -15v-6q-1 -5 -2 -14t-2 -13q-1 -9 -2 -27.5t-2 -27.5v-37zM572 1439q0 -1 3 3h-2z" />
<glyph unicode="'" horiz-adv-x="223" d="M49 1446q0 16 11.5 30t25.5 11q5 0 15 -1t16 -1q18 -4 24 -17q11 -11 11 -28q0 -43 -19 -62q-3 -3 -12 -20t-19.5 -28t-23.5 -7q-12 4 -19 35t-8.5 52.5t-1.5 35.5z" />
<glyph unicode="(" horiz-adv-x="530" d="M23 1106q46 375 223 670q8 12 21.5 15.5t27.5 -3.5q12 -8 15.5 -22.5t-3.5 -26.5q-18 -31 -22 -41q-24 -43 -39 -74q-10 -14 -21 -41q-4 -12 -8 -18q0 -5 -4 -9v-4q-35 -81 -59 -163q-27 -96 -43 -175q-2 -14 -7.5 -43.5t-7.5 -44.5v-8q-2 -4 -2 -12q-2 -6 -2 -21 q-4 -28 -4 -45q-16 -189 4 -358q0 -4 1 -11.5t1 -11.5q2 -4 2 -10q-1 2 0 -4t3 -19.5t3 -19.5q2 -15 17 -82q14 -76 43 -162q13 -44 26 -79q2 -4 8 -19t9 -22q5 -14 8 -19v-4q4 -8 4 -10q35 -78 76 -152q53 -89 92 -145q6 -7 15 -19l12 -16l4 -4q1 -1 3 -4t3 -4q2 -3 6 -8.5 t6 -8.5q3 -4 58 -65q10 -11 10 -26t-10 -25q-9 -10 -25.5 -10t-26.5 10q-40 45 -53 63q-222 269 -313 613q-96 342 -51 698z" />
<glyph unicode=")" horiz-adv-x="548" d="M-48.5 1772.5q-0.5 14.5 9.5 25.5q11 9 26.5 9.5t24.5 -9.5q9 -11 28 -32.5t28 -32.5q216 -265 311 -613q91 -349 47 -700q-51 -380 -225 -668q-8 -12 -22.5 -15.5t-26.5 3.5q-12 8 -16 22.5t3 26.5q4 7 11.5 20.5t11.5 20.5q24 44 39 74q3 7 9 20.5t9 20.5q4 6 8 18 q4 4 4 8l2 4q37 86 60 164q29 92 43 174q12 60 16 88v9q0 2 1 5.5t1 4.5q0 4 1 11t1 11q4 28 4 43q17 172 -2 361q-1 4 -2 11t-2 11v11v-2q-1 5 -2 6q0 15 -4 39q-3 14 -8 41t-8 41q-12 63 -41 161q-3 8 -29 80q-2 8 -7.5 23.5t-6.5 17.5q-3 5 -8 19l-1 4h-1l-5 10 q-46 102 -73 151q-45 79 -92 146q-12 14 -27 37l-4 4q-4 4 -6 8q-7 7 -13 16q-4 5 -57 66q-9 11 -9.5 25.5z" />
<glyph unicode="*" horiz-adv-x="884" d="M82 680q0 15 11 26t26 11q116 0 229 10q-1 1 -3 2t-3 2q-77 57 -96 76l-23 12q-6 -8 -8 -9.5t-8.5 -4.5t-14.5 3t-18 19l-27 41q-14 28 3 45q8 8 20.5 12t22.5 -1q5 -3 35.5 -23t47.5 -29q6 -4 99 -84q-2 16 -5 42.5t-5.5 44.5t-2.5 20l-8 25q-8 0 -15.5 -0.5t-11.5 9.5 t-1 32l10 47q3 12 12 21t19 9q11 2 23.5 -5t15.5 -17q3 -17 11 -48.5t11 -45.5q6 -31 14 -150l170 166q11 11 27 10t25 -12q10 -12 8.5 -27t-13.5 -24q-80 -70 -151 -142q93 19 100 19l25 8q0 8 -1 16t8.5 12.5t31.5 2.5l49 -8q12 -3 21.5 -12t9.5 -19q2 -11 -4.5 -23.5 t-16.5 -15.5q-18 -4 -49 -13.5t-45 -13.5q-27 -7 -137 -18l162 -154q12 -11 11.5 -26.5t-11.5 -24.5q-11 -10 -27 -9.5t-27 11.5q-69 77 -157 158l10 -232q0 -15 -11.5 -25.5t-25.5 -8.5q-15 0 -25.5 10.5t-9.5 25.5q2 80 -2 218q-66 -82 -74 -86l-12 -23l5 -5l5 -5t3.5 -5 t1 -6.5t-3.5 -7t-7.5 -9.5t-13.5 -11l-43 -25q-10 -6 -23.5 -5.5t-19.5 9.5q-8 6 -11.5 20t1.5 23q17 23 55 80q2 5 86 97l-217 -17q-15 -1 -26 10t-11 25z" />
<glyph unicode="+" horiz-adv-x="823" d="M78 686q0 15 11 26t26 11q118 0 262 12q-1 7 -2 23t-2 22q-1 12 -5 43.5t-7 53.5t-3 24l-8 25q-8 0 -15.5 -0.5t-11.5 9.5t-1 32l10 47q8 30 30 30q11 2 23.5 -5t15.5 -17q3 -17 11.5 -48t11.5 -46q2 -5 5 -37t7 -79.5t6 -68.5q38 4 41 5q110 20 121 20l25 8q0 8 -1 16 t8.5 12.5t31.5 2.5l49 -8q12 -3 21.5 -12t9.5 -19q2 -11 -4.5 -23.5t-16.5 -15.5q-18 -4 -49 -13.5t-45 -13.5q-17 -7 -187 -24l11 -270q0 -15 -11.5 -26t-25.5 -9q-15 0 -25.5 11t-9.5 26q3 134 -4 262l-266 -21q-15 -1 -26 10t-11 25z" />
<glyph unicode="," horiz-adv-x="237" d="M63 88q0 16 11.5 30t25.5 11q5 0 15 -1t16 -1q19 -5 25 -16q10 -10 10 -29q0 -43 -19 -62q-3 -3 -12 -20t-19.5 -28t-23.5 -7q-12 4 -19 35t-8.5 52.5t-1.5 35.5z" />
<glyph unicode="-" d="M246 688q0 15 11 26t26 11q112 0 368 25q110 20 121 20l25 8q0 8 -1 16t8.5 12.5t31.5 2.5q10 -1 26 -4t23 -4q12 -3 21 -12t9 -19q2 -11 -4 -23.5t-16 -15.5q-18 -4 -49.5 -13.5t-44.5 -12.5q-6 -2 -57.5 -8.5t-106 -13.5t-57.5 -7l-297 -23q-15 -1 -26 10t-11 25z" />
<glyph unicode="." horiz-adv-x="393" d="M160 79.5q0 22.5 14 35.5q12 15 34.5 15.5t35.5 -11.5q14 -14 14.5 -35.5t-12.5 -36.5q-14 -14 -36 -14.5t-36 12.5q-14 12 -14 34.5z" />
<glyph unicode="/" horiz-adv-x="708" d="M78.5 61q-3.5 15 5.5 27q7 11 59.5 100t79.5 136q96 167 180 346q32 76 35 84q29 65 39 90q41 106 45 114l6 25q-19 7 -21 15q-2 11 15 34l33 37q8 9 20 12.5t21 -2.5q11 -3 18 -15t4 -22q-6 -20 -14.5 -55t-9.5 -39q-2 -8 -9.5 -22.5t-9.5 -18.5q-28 -90 -63 -166 q-115 -270 -369 -690q-7 -12 -22 -16t-25 2q-14 9 -17.5 24z" />
<glyph unicode="0" horiz-adv-x="688" d="M12 631q10 181 54 319q31 101 69 156q55 84 121 74q13 -1 20.5 -16t4.5 -29q-4 -13 -16 -20t-25 -5l-7 -2l-8 -4l-4 -4q-3 -3 -8 -9.5t-8 -9.5l-2 -2q-3 -5 -10.5 -15t-10.5 -15q-9 -18 -18 -39q-4 -4 -4 -11l-2 -2v-2q-5 -7 -8 -20q-7 -18 -21 -64q-26 -96 -33 -155v-4 q-2 0 -2 -2v-11q-2 -6 -2 -18q-4 -24 -4 -39q-4 -54 -4 -80q0 -102 6 -153q0 -4 1 -11t1 -10v-6l2 -4q0 -13 4 -33q2 -13 7.5 -34t7.5 -29q2 -5 5 -15.5t5 -15.5q4 -14 8 -21l2 -6q0 -1 1 -3t1 -3q13 -30 37 -61l4 -7q4 -4 4 -6q7 -7 13 -10l10 -10l2 -2l2 -2q13 -10 26 -15 q2 -2 5 -2q2 -1 6 -2t6 -2q2 0 5 -1t5 -1h8h23q8 2 10 2q2 1 7 2t7 2q5 0 13 4h2q0 3 4 3q4 2 13 7t13 7l4 3q4 3 5 5q1 0 3 1t3 1q6 6 19.5 18.5t19.5 18.5q3 4 10 12.5t10 12.5v2q4 0 4 4q2 2 5.5 7t5.5 7q18 27 34 59q9 15 19 35q1 2 3 7.5t3 7.5q0 1 1 3t1 3q1 1 2 4 t2 4q16 44 27 80q22 83 28 178q3 46 0 94q0 7 -1 22.5t-1 22.5q-1 3 -2 10.5t-2 10.5v8v6q-5 37 -18 76q-7 32 -25 67q-7 15 -22 33v2l-6 6q-2 2 -5.5 6.5t-5.5 6.5q-5 3 -8 8q-2 2 -4 2q-1 1 -4 3t-4 3l-12 6l-5 2h-2q-3 1 -8 3t-8 3h-6h-23h-2h-4q-2 -1 -5.5 -2t-4.5 -2 l-10 -2q-4 -4 -6 -4q-1 -1 -15 -8v-2q-2 0 -6 -4q-11 -11 -20 -23h-2q0 -1 -3 -4q0 -2 -4 -6q-8 -12 -10 -16q-2 -3 -5 -9.5t-5 -9.5q0 -4 -4 -8q6 -21 12 -45q3 -14 -4.5 -27t-22.5 -16q-13 -4 -26.5 3t-16.5 21q-2 6 -5 20.5t-5 20.5q-6 30 -4 35q2 4 5 11.5t5 11.5 q13 31 35 57q42 55 94 74q53 16 103 -2q54 -18 100 -78q42 -58 62 -147q17 -79 20 -177q0 -195 -68 -358q-66 -155 -155 -221q-56 -45 -109 -53q-68 -9 -125 20q-103 58 -149 242q-32 135 -25 301z" />
<glyph unicode="1" horiz-adv-x="593" d="M63 117q0 37 41 41q82 10 146 10q7 46 22.5 138t22.5 138q27 177 29 195q12 83 24 188q16 165 19 308q-12 -9 -21 -21l-4 -4q0 -2 -4 -6q-4 -8 -8 -12q-7 -13 -25 -18t-31 3q-14 9 -18.5 25.5t4.5 30.5q41 70 125 116q22 11 41.5 -0.5t19.5 -34.5q6 -167 -14 -360 q-7 -66 -15 -132.5t-20.5 -149.5t-19 -126t-24 -148.5t-21.5 -131.5q77 -6 145 -23q15 -3 23.5 -18.5t5.5 -30.5q-9 -35 -51 -28q-17 4 -47 8q-16 4 -23 4q-6 0 -6 2h-8q-32 4 -52 4q0 -1 -1 -3.5t-1 -4.5q-1 -16 -17.5 -24t-31.5 -5q-27 8 -30 39q-59 0 -134 -10 q-17 -1 -29 12t-12 29z" />
<glyph unicode="2" horiz-adv-x="655" d="M72 207.5q-2 19.5 10 30.5q149 120 237 221q4 5 12.5 15t12.5 15q2 2 6 7.5t6 7.5q1 1 3 4t3 4q3 2 5 4q17 22 43 59q4 7 17 30t19 36q3 6 9.5 17.5t9.5 17.5q1 2 3 6.5t3.5 7.5t1.5 4q0 2 1 4.5t1 3.5q19 48 25 72q1 6 4 18.5t4 18.5q2 6 2 18q2 2 2 7v4q4 27 4 78 q0 14 -4 38v11v2v2q-1 3 -2 8.5t-2 7.5q-1 6 -4 18.5t-4 18.5q-1 3 -3 8t-3 8q-2 2 -2 7l-3 2q-4 10 -16 30q-5 10 -8 13l-6 10q-3 4 -19 20q-2 2 -5.5 6t-4.5 5q-10 10 -10 6l-21 14q-6 6 -12 6l-4 2l-2 2q-5 1 -14.5 4t-14.5 4q-5 0 -8 3h-10q-16 3 -31 0h-2h-4 q-2 -1 -14 -5q-22 -5 -27 -8q-1 0 -2 -1t-2 -1t-3 -1t-3 -1q-2 -1 -7.5 -4t-7.5 -4q-2 -2 -8 -5.5t-8 -4.5q-1 -1 -3 -2t-3 -2q-2 -3 -4 -5q-4 -3 -12.5 -10t-12.5 -10q-9 -10 -24.5 -10t-24.5 10q-11 9 -11 24.5t11 24.5q71 74 168 86q84 10 154 -41q55 -37 90 -100 q33 -62 43 -150q14 -150 -56 -307q-57 -125 -176 -254q-77 -85 -180 -172q8 -5 24 -12.5t21 -9.5q26 -13 53 -25q5 -2 14.5 -6t14.5 -6q8 -4 14 -6q2 -2 7 -2q52 -24 108 -39q39 -10 49 -11q6 -2 8 -2h13h20q13 0 24 -11t11 -25q0 -15 -10.5 -25t-24.5 -10q-84 -5 -219 53 q-40 16 -112 49.5t-101 46.5q-14 8 -16 27.5z" />
<glyph unicode="3" horiz-adv-x="1091" d="M82 1194q-4 13 3 26.5t21 18.5q134 32 234 -4q62 -22 108 -65t60 -103q25 -106 -49 -219q11 -2 32 -7t33 -7q113 -29 209 -70q126 -52 195 -121q39 -39 58.5 -91t12.5 -106q-16 -101 -125 -184q-74 -58 -217 -131q-15 -8 -47 -24t-51 -26t-45 -25.5t-47 -30.5 q-11 -7 -26 -2.5t-23 16.5q-15 27 14 49q34 25 88 53q180 93 215 113q2 1 53 33q4 3 13.5 9t13.5 9q0 1 3 3.5t5 2.5l8 8q14 10 41 37q3 4 9.5 11.5t9.5 11.5l4 4q1 2 3 5t3 5q7 10 14 23l5 8q0 2 1 4.5t1 3.5q1 4 3 12.5t3 12.5q0 1 1 4t1 4v8v21q-2 2 -2 8q0 2 -1 5t-1 5 l-6 18q-5 5 -5 9q-1 1 -2 4t-2 4q-6 12 -14 20q0 1 -1 3t-1 3q-1 1 -3 3.5t-3 3.5q-26 26 -37 34q-1 1 -3.5 4t-4.5 5l-6 4q-4 3 -7.5 5.5t-7.5 5t-6 3.5q-40 25 -47 29q-27 12 -51 24q-2 0 -4.5 1t-3.5 1l-2 2q-5 0 -13 4q-4 2 -12 5.5t-12 5.5q-78 27 -107 35 q-95 26 -176 45q-9 1 -16 8t-8 16q-6 18 8 35q4 2 8 10q2 0 2 2l4 4q2 2 12 17q6 9 21 39q1 2 2.5 4t2.5 3.5t1 2.5v4q1 3 3 8t3 8q5 12 8 35v2q0 1 1 3t1 3v15v12l-2 10q0 11 -4 23q-4 8 -4 12l-2 2q0 2 -2 4q-2 8 -12 23l-6 8q-1 1 -3.5 3t-3.5 3q-10 14 -20 21l-2 2l-2 2 q-8 4 -12 8q-21 13 -33 16l-12 6q-5 1 -16.5 4.5t-16.5 4.5q-4 2 -15 2q-2 2 -8 2h-2q-45 4 -69 2q-4 -2 -21 -2h-2q-4 -2 -10 -2q-6 -1 -18.5 -4.5t-18.5 -4.5q-14 -3 -27 4.5t-16 20.5z" />
<glyph unicode="4" horiz-adv-x="1038" d="M79 782q0 20 17 31q89 58 217 129q189 108 285 174q30 18 66 47q2 1 5 3t5 3l4 5q2 2 7 6t7 6q5 4 15.5 12t15.5 12q82 74 117 117q9 10 24.5 9.5t26.5 -9.5q10 -11 9.5 -25.5t-9.5 -25.5q-82 -95 -193 -176q-96 -72 -292 -186t-222 -130q6 -3 15 -6q2 -2 14 -6 q64 -26 106 -37q132 -38 285 -57q4 -2 10 -2h4q6 -2 17 -2q24 -4 35 -4q20 -4 65 -8q63 -6 119 -9q15 -2 25 -12t10 -25q0 -14 -10.5 -24.5t-24.5 -9.5q-123 6 -223 20q-170 20 -295 53q-160 45 -240 97q-17 10 -17 30zM895 88q9 70 12 141q6 118 6 251t-3 295t-3 251 q0 14 10.5 24.5t24.5 10.5q15 0 26 -10.5t11 -24.5v-143q1 -44 3 -153.5t2.5 -169t0 -150t-5 -168.5t-12.5 -154q-2 -16 -11.5 -26.5t-23.5 -10.5t-26 11.5t-11 25.5z" />
<glyph unicode="5" horiz-adv-x="1038" d="M53 1036q7 75 64.5 125t146.5 88q10 21 33 21h20h15q40 -1 114 -7t101 -8q55 -5 123 -2q20 0 30 2h15q2 2 6 2h2q24 3 55 13q14 3 27 -4.5t16 -22.5q4 -13 -3 -26.5t-21 -16.5q-69 -18 -144 -19.5t-177.5 7.5t-145.5 10q-4 -2 -12.5 -5t-12.5 -5q-2 0 -10 -4q-6 0 -10 -4 q-4 -2 -47 -23q-7 -4 -20.5 -12t-20.5 -12q-1 -1 -4.5 -3.5t-4.5 -3.5q-2 -2 -4 -2l-12 -12q-16 -12 -25 -25l-2 -2q-1 -1 -2 -3t-2 -3q-4 -8 -8 -14q0 -2 -2 -4v-2q-1 -2 -2 -6t-2 -6l-2 -9v-10v-14q0 -4 2 -6q1 -3 3 -10t3.5 -12.5t1.5 -6.5t1 -3t1 -3q1 -2 4 -7.5t4 -7.5 q3 -5 9.5 -14t9.5 -14q1 -1 2 -3t2 -3l2 -2q2 -2 6 -7.5t6 -7.5q14 -18 27 -28q33 -33 65 -58q3 -3 9.5 -8t9.5 -8q4 -4 8 -6q2 -2 4 -2q26 -21 39 -29q110 -80 350 -221q96 -56 160 -96q76 -51 123 -91q19 -16 4 -43q-21 -41 -49.5 -77.5t-71.5 -72t-69.5 -55t-85 -58 t-76.5 -50.5q-12 -7 -26.5 -2.5t-22.5 16.5q-7 12 -3.5 26.5t15.5 23.5q19 12 54 35t40 26q30 17 49 33q4 3 12.5 8t12.5 8q2 2 6 5t6 5l6 5q46 37 84 75q3 3 8.5 10.5t8.5 10.5q6 6 4 6q2 0 2 2q2 2 6 10q7 7 14 21q-2 0 -2 2h-2q-6 5 -18.5 14t-18.5 14q-47 31 -99 63.5 t-121.5 73t-102.5 60.5q-230 138 -338 231q-67 57 -111 121q-45 66 -39 129z" />
<glyph unicode="6" horiz-adv-x="907" d="M43 522q14 72 53 156q39 79 76 137q68 107 190 258q2 3 6.5 9.5t6.5 9.5q4 4 6 8q2 2 4 2q3 5 10.5 15.5t10.5 15.5q40 50 49 63q47 66 86 133q6 12 20.5 15.5t28.5 -3.5q12 -8 15.5 -22.5t-3.5 -26.5q-53 -90 -123 -182q-10 -13 -33 -43t-36 -47q-11 -15 -33 -41 q-15 -20 -17 -23l-4 -4v-2q-6 -6 -8 -10q-117 -153 -172 -262q-3 -6 -9 -18.5t-9 -18.5q-1 -2 -3 -7t-3 -7l-2 -6q-1 -1 -2.5 -4.5t-2.5 -4.5l-24 -75q-8 -23 -10 -39q0 -2 -1 -7.5t-1 -7.5v-2q0 -3 -3 -6q-3 -34 0 -63q0 -8 3 -17v-2v-6q3 -12 6 -27q5 -21 8 -28 q1 -2 2 -6.5t2 -6.5q2 -2 2 -6q1 -3 29 -47q1 -1 3 -4t3 -4t3 -4t3 -4q10 -10 16 -19q11 -11 23 -20q4 -4 6 -4q6 -6 8 -6q26 -18 47 -29q2 -1 6.5 -3t6.5 -3q2 0 2 -2h4q4 -2 12 -5t12 -5q10 -1 29.5 -6.5t26.5 -6.5h2h6q8 0 14 -2h27q21 0 31 2h10q2 2 10 2q38 8 59 17 q18 4 25 8q1 1 12 5.5t17 8.5q27 15 57 35l6 6q2 2 4 2q9 9 13 11q16 16 24 22q6 7 19.5 21.5t19.5 21.5v2l4 4q1 1 3 4t3 4q7 11 10 19q1 2 3.5 5t3.5 5v2q8 12 8 23v14q-2 2 -2 4v4q-4 4 -4 6l-9 9q-3 3 -12 6l-4 2q-9 6 -22 6h-13h-16h-8q-2 0 -4 -2q-14 0 -29 -6 q-3 -1 -9.5 -3t-9.5 -3h-2q-1 -1 -3 -2.5t-3 -2.5q-15 -6 -30 -18q-3 0 -7 -4q-1 0 -2 -1t-2 -1q-8 -8 -14 -12q-1 -3 -3 -5.5t-5 -6t-4 -5.5q-2 0 -2 -2q-4 -4 -4 -6q-2 -3 -6.5 -9t-6.5 -9q-1 -2 -2 -5.5t-2 -5.5q0 -2 -2 -2q-2 -7 -6 -21.5t-6 -21.5q0 -9 -2 -10v-8v-25 q0 -14 -11 -24.5t-26 -10.5q-13 0 -24 11t-11 24q0 107 62 178q50 60 129 82q81 21 145 -8q31 -15 48 -45t13 -65q-9 -82 -110 -175q-114 -99 -242 -116q-131 -19 -241 35q-114 57 -162 159q-60 117 -31 254z" />
<glyph unicode="7" horiz-adv-x="815" d="M37 1333q0 15 10.5 26t24.5 11q55 0 155 4.5t138 5.5q95 0 186 -12h-4h8q2 -2 6 -2h14q6 -2 23 -2h31q44 -3 55 -41q5 -16 9.5 -46t6.5 -38q15 -74 13 -119q-2 -43 -19 -135q-32 -135 -88 -278q-80 -216 -92 -256q-10 -30 -39 -154q-29 -119 -53 -195q-5 -14 -17.5 -21 t-27.5 -3q-14 3 -21.5 16.5t-3.5 26.5q31 96 68 252q16 72 35 133q11 27 47 125q68 179 98 276q27 100 33 137q0 2 1 8t1 9l2 8q0 5 1 15.5t1 15.5q2 20 2 59q0 3 -1 8.5t-1 8.5v10q-4 12 -4 20q-8 25 -12 58q-1 5 -3.5 14t-3.5 14h-26q-10 1 -32 3t-32 3q-4 2 -12 2l-6 3 q-15 0 -23 2q-7 0 -21.5 1t-21.5 1q-69 3 -196 -3t-174 -6q-14 0 -24.5 11t-10.5 24z" />
<glyph unicode="8" horiz-adv-x="778" d="M23 1004q-4 44 4 63q12 33 47 68q66 72 174 135q112 72 203 92q53 14 92 6q44 -12 69 -51q24 -40 27 -92q5 -44 2 -103q-2 -28 -6.5 -61.5t-8.5 -56t-11.5 -63.5t-10.5 -58q-8 -35 -20 -105q0 -6 -4 -22v-6v-5q-2 -10 -2 -32q0 -15 -11 -26t-26 -11q-14 0 -24.5 11 t-10.5 26q0 21 8 75q4 29 16 91q3 17 10.5 52.5t10.5 53.5q1 10 4 28t4 25q0 3 1 8t1 7q0 1 1 6t1 6q0 3 1 10t1 10q6 55 6 111q-2 8 -2 25q0 2 -2 4v8q-1 4 -3 11t-3 11q0 1 -1 4.5t-1 4.5l-2 2q-3 8 -8 16l-6 6l-2 2l-4 4l-7 2q-1 0 -4 1t-4 1h-2h-14h-10h-4 q-3 -1 -9.5 -2t-9.5 -2q-37 -11 -45 -14q-3 -1 -11 -4t-14 -4q-1 -1 -3 -2t-3 -2q-4 0 -12 -4q-39 -18 -102 -56q-44 -28 -50 -32q-5 -2 -12.5 -9t-9.5 -8t-6 -4t-6 -4l-4 -4q-42 -31 -74 -66q-2 -2 -6 -7t-6 -7q-1 -2 -3 -2q0 -2 -4 -6q-1 -2 -4 -6t-4 -6v-3v-2v-4 q-2 -4 -2 -8q0 -10 2 -16v-6v-2q0 -3 1 -8.5t1 -8.5q4 -12 6 -16q23 8 39 -8q45 -43 56 -127q0 -4 1 -14t1 -15q19 -22 41 -41q4 -4 6 -4q0 -2 2 -2q1 -1 3 -2t3 -2q3 -2 9 -6.5t9 -6.5q7 -3 22.5 -10t22.5 -10h2q1 -1 3.5 -2t3.5 -2q4 0 12 -4q4 -2 12 -5t12 -5 q91 -32 113 -41q49 -19 77 -31.5t66 -35.5t64 -50q42 -45 53 -96q12 -64 -14 -121q-38 -86 -170 -146q-72 -33 -213 -71q-104 -27 -149 -27q-20 0 -39 4q-74 15 -103 88q-19 52 -8 137q8 70 38 196.5t36 158.5q1 7 3 21.5t3 21.5q2 4 2 10v2q1 4 2 11t2 10q0 6 1 18t1 18 q-6 6 -12 15q-51 65 -74 131q-15 38 -18 74zM106 268q0 -17 3 -32v-7v-2q1 -2 2 -6.5t2 -7.5q0 -4 4 -12v-2q0 -2 2 -2q1 -2 3 -6.5t3 -6.5l2 -2l6 -6q1 -1 4 -3t4 -3q1 0 3 -1t3 -1q8 -4 13 -4q4 -2 8 -2q2 0 4 -2h12q6 0 16 0.5t17 1t8 0.5h4q4 2 13 2l24 6q35 9 49 14 q49 12 99 27q9 3 26.5 9t26.5 9q26 10 29 11q1 1 3 2t3 2l12 6q9 3 51 24q4 3 12.5 8.5t12.5 8.5q8 4 10 8h2q2 2 4 2l33 33q6 6 6 10q2 2 6 10q1 1 6 11q0 2 2 2v2q1 2 4 10.5t3 13.5l2 4v13v16q0 4 -2 4q0 11 -4 23q-3 3 -3 4v2q-2 2 -6 10q-1 1 -3 4t-3 4l-4 8 q-21 21 -33 31q-4 2 -4 4h-2q-6 6 -10 8q-21 14 -23 15q-18 12 -51 26l-26 13h-2q-1 0 -3.5 1t-3.5 1l-12 6q-7 3 -27 10t-30 12q-66 22 -109 41q-52 19 -94 45q-12 9 -20 17q-1 -5 -3.5 -15.5t-3.5 -15.5q-9 -59 -36.5 -175t-36.5 -175q0 -6 -2 -8v-4q0 -3 -1 -9.5t-1 -9.5 q0 -5 -1.5 -17t-1.5 -18z" />
<glyph unicode="9" horiz-adv-x="839" d="M8 846q-3 50 8 119q11 70 25 112q40 124 156 203q116 81 239 78q69 -3 129.5 -32t102.5 -81q21 -25 2 -47q53 -143 86 -328q33 -183 41 -331q3 -97 -66 -183q-51 -66 -156 -127q-76 -45 -188 -84q-78 -29 -151 -43q-1 0 -12 -2t-14 -2.5t-13.5 -2t-14.5 -1t-13 1t-13.5 3 t-10.5 5.5t-9.5 8.5t-6.5 12.5q-6 13 3 26.5t22 18.5q10 3 24 -2h8h9h4q4 1 13 3t13 3q66 12 158 45q5 2 45 19l18 6q3 2 11.5 5t11.5 5q41 20 88 49q27 16 41 27q2 1 6 4t6 4q2 2 4 2q2 3 8.5 8.5t8.5 7.5q12 10 35 33q8 8 14 17q0 1 1 2t1 2q1 1 3 4t3 4q18 26 23 39v2 q4 8 4 10q1 3 3 10t3 10q0 2 1 6.5t1 6.5v2q2 6 2 20q0 24 -4 70q-4 52 -8 80q0 15 -4 43q0 4 -2 6v6q0 4 -1 11t-1 10q-10 73 -31 168q-29 125 -56 206q-11 -54 -20 -86q-38 -158 -88 -237q-37 -60 -84 -96q-62 -50 -131 -70q-148 -46 -225 24q-62 59 -62 187zM79 856 q-1 -27 1 -27q0 -16 2 -26v-2v-2q0 -1 1 -5t1 -6q3 -16 10 -38q4 -4 4 -9q1 -1 2 -4t2 -4t3.5 -4t3.5 -4q0 -2 2 -2q4 -6 12 -14l2 -2q1 -1 4 -2.5t4 -2.5q2 -1 5 -3t5 -3h2q3 -1 10.5 -3t10.5 -3h4h2q2 0 6 -1t6 -1q17 0 27 2h6h2q3 1 7.5 2t6.5 2q22 4 33 8q16 3 37 13 q1 0 3 1t3 1l4 2q9 3 15 6l30 18q8 4 13 9q1 1 3 2t3 2h2q5 5 14 13.5t16.5 16t12.5 13.5q1 1 3 4t3 4l2 2q1 2 3 5t3 5q11 11 17 23q8 14 26 55h2v2q0 1 1 3t1 3q3 9 6 15q2 5 5.5 14t5.5 14q12 40 16 60q6 21 18 71t22 86.5t22 69.5l-5 4q-1 1 -4 2t-4 2t-8 6.5t-12 7.5 q-2 1 -7.5 3.5t-7.5 3.5q-1 1 -3 2t-3 2q-5 1 -14 4t-14 4q-24 6 -29 6q-1 0 -2 1t-2 1h-2h-15q-31 3 -55 -2h-6q-4 0 -8 -2q-8 0 -12 -2q-22 -4 -29 -8q-12 -2 -31 -10h-2q0 -3 -4 -3l-12 -6q-44 -24 -54 -32q-6 -3 -12 -9l-2 -2q-1 -1 -3 -2t-3 -2q-2 -2 -6 -5.5t-7.5 -7 t-6.5 -7.5q-13 -10 -23 -23l-10 -10q0 -1 -1 -2t-1 -2l-2 -2q-17 -22 -31 -51q-1 -2 -3 -6.5t-3 -6.5q0 -1 -2 -5t-2 -5q-5 -9 -9 -27q-17 -77 -22 -110v-4v-8q-2 -4 -2 -13q0 -4 -1 -13t-1 -13zM123 709z" />
<glyph unicode=":" horiz-adv-x="391" d="M125 111q0 37 22 59q21 27 60 27q33 0 55 -19q23 -25 24.5 -59.5t-20.5 -57.5v-2q-10 -8 -33 -15t-28 -7q-38 0 -55 20q-22 19 -25 54zM125 823q0 38 22 60q23 26 60 26q32 0 55 -20q23 -23 24.5 -57.5t-20.5 -59.5q-27 -24 -61 -24q-36 0 -55 22q-22 19 -25 53z" />
<glyph unicode=";" horiz-adv-x="407" d="M127 772q0 39 23 62q23 26 59 26q32 0 55 -20q23 -23 24 -57.5t-22 -59.5q-22 -25 -61 -25q-31 0 -55 21q-23 20 -23 53zM150 258q0 20 12.5 36.5t30.5 16.5h6q10 0 14 -2h18q2 -1 6.5 -2.5l7.5 -2.5t7 -3.5t7 -5.5t5 -8q12 -12 12 -35q0 -52 -22 -74q-2 -1 -3.5 -3.5 t-4 -7t-4.5 -7.5q-22 -45 -47 -45q-7 0 -9 2q-23 6 -32 71z" />
<glyph unicode="&#x3c;" horiz-adv-x="1216" d="M74 698q7 6 17.5 18l17.5 20t8 7q165 160 397 361q23 20 62.5 50t68 51.5t29.5 21.5q16 12 48.5 37.5t49.5 38.5q84 69 148 106q98 59 180 51q16 -2 26.5 -12t10.5 -27q0 -14 -11 -25t-26 -10h-43q-4 -2 -6 -2q-1 0 -5 -1t-6 -1l-20 -6l-25 -8q-4 -4 -8 -4l-39 -23 q-46 -30 -147 -106q-12 -10 -31.5 -24t-34 -24t-14.5 -9q-3 -3 -9.5 -8.5t-9.5 -8.5q-55 -43 -141 -114q-189 -158 -387 -353q81 -71 105 -90q9 -6 65 -55q14 -7 21 -14l8 -7q5 0 20 -13t17 -13q281 -213 561 -361q32 -14 26 -45q-2 -15 -12.5 -24t-28.5 -6 q-275 143 -561 356q-134 100 -272 219l-8 9q-36 40 -41 48z" />
<glyph unicode="=" horiz-adv-x="1148" d="M82 313q0 23 15.5 38.5t37.5 15.5q101 0 215.5 7t214.5 17t103 10q33 7 101 19t73 12l35 12q0 12 -1 22.5t13 17t45 3.5l70 -10q19 -5 32 -17.5t13 -27.5q2 -17 -6.5 -34.5t-22.5 -20.5q-27 -7 -73 -20.5t-64 -18.5q-13 -4 -153.5 -21.5t-166.5 -19.5l-428 -33 q-21 -3 -37 12.5t-16 36.5zM82 690q0 22 15.5 37.5t37.5 15.5q189 0 533 35q170 29 174 29l35 12q0 13 -1 24t12.5 17.5t45.5 3.5l70 -12q45 -11 45 -45q2 -16 -6.5 -33.5t-22.5 -21.5q-27 -7 -73 -20.5t-64 -18.5q-12 -3 -163 -21.5t-157 -19.5l-428 -33q-21 -1 -37 14.5 t-16 36.5z" />
<glyph unicode="&#x3e;" horiz-adv-x="1202" d="M59 1450q0 17 10.5 27t26.5 12q82 8 180 -51q61 -34 148 -107q16 -12 48.5 -37.5t49.5 -38.5q1 0 29.5 -21t68 -51t62.5 -50q232 -201 397 -361q1 1 8 -7l17.5 -20t17.5 -18q-5 -8 -41 -48l-8 -9q-138 -119 -272 -219q-290 -217 -561 -357q-18 -3 -28.5 6.5t-12.5 24.5 q-6 31 26 45q284 150 561 360q2 0 17 13.5t20 13.5l8 6q9 9 21 15q52 45 66 55q15 11 104 90q-191 188 -387 352q-114 94 -141 115q-3 3 -9.5 8t-9.5 8q0 -1 -14.5 9.5t-34 24.5t-31.5 24q-101 76 -147 106l-39 23q-4 0 -8 4l-25 8l-20 6q-2 0 -6 1t-5 1l-6 2h-43 q-15 -1 -26 10t-11 25z" />
<glyph unicode="?" horiz-adv-x="679" d="M18 942q1 16 2.5 48t2.5 48q0 21 4 33q33 111 84 172q40 43 86 60q26 10 97 11.5t99 -5.5q66 -11 113.5 -62.5t73.5 -122.5q21 -58 28 -131q11 -89 -4 -151q-9 -36 -55 -140q-23 -44 -33 -69l-2 -2v-4q-4 -4 -4 -9l-8 -18l-13 -43q-11 -34 -19.5 -67t-16.5 -78.5t-11 -64 t-12 -80t-10 -68.5q-1 -13 -15.5 -20.5t-27.5 -4.5q-32 10 -25 45q25 194 47 283q22 91 58 174q15 34 32 67q3 7 11.5 24.5t11.5 27.5q4 4 4 8q18 53 21 69q2 4 2 13q2 4 2 6v16q3 19 0 39q0 23 -2 33q0 10 -2 14v2v6l-13 62l-18 57q-1 1 -2 3q-1 3 -2 3q0 2 -1 5t-1 4 q-4 8 -8 12q-6 15 -15 27q-4 4 -4 6l-2 2l-29 28l-6 4q-1 0 -6 5l-12 6l-10 6q-1 0 -6.5 2t-6.5 2l-26 6q-9 2 -11 2h-26q0 -2 -86 -2q-9 0 -21 -4l-8 -4q-1 0 -4 -1t-4 -1l-19 -10l-4 -4q-7 -7 -8 -9l-16 -14l-4 -8l-6 -6l-13 -21q-15 -26 -22 -45l-2 -2q0 -4 -2 -6l-4 -12 q-5 -11 -9 -25q-1 -4 -3 -11t-3 -11q0 -17 -2 -25q14 -8 19.5 -21.5t-0.5 -27.5q-18 -32 -23 -43q-6 -11 -17.5 -17.5t-21.5 -3.5q-12 3 -21.5 12.5t-9.5 20.5zM336 35q0 13 11 24t24 11q17 0 27 -10.5t10 -24.5q0 -15 -11 -26t-26 -11q-14 0 -24.5 11t-10.5 26z" />
<glyph unicode="@" horiz-adv-x="1794" d="M78 473q-9 73 9 146t52 132t87.5 118.5t104.5 103.5t113 90h2q1 1 3.5 3t3.5 3q4 4 8 6q3 2 8 6t8 6q22 18 35 27q10 7 36.5 28.5t41.5 31.5q91 65 155 94q155 69 363 82q210 14 356 -64q125 -67 185 -196q61 -121 64.5 -262t-52.5 -265q-37 -75 -82 -135 q-36 -50 -59 -70q-16 -18 -60 -53q-82 -70 -133 -94q-52 -21 -82 -10q-44 14 -57 63v12l-2 3q-22 103 -19 200q1 9 4 40.5t3 49.5v21q-183 -153 -388 -236l-84 -30q-65 -21 -100 -17q-51 5 -88.5 35t-40.5 80q-2 32 23 92q9 27 36 66q46 59 123 110q149 93 337.5 102 t348.5 -63q13 -6 17 -21.5t-4 -27.5q-15 -27 -49 -12q-1 0 -3.5 1t-3.5 1q-8 4 -10 4q-3 2 -11 5t-11 5l-47 14q-56 15 -91 19h-10q-4 2 -10 2q-4 0 -12.5 1t-12.5 1q-7 0 -22.5 1t-22.5 1q-46 0 -92 -6l-10 -2q-6 0 -10 -2q-4 0 -11 -1t-10 -1l-41 -11q-54 -15 -84 -26 l-8 -4l-8 -4q-11 -4 -19 -9l-32 -16q-2 -1 -35 -23l-14 -10q-3 0 -7 -4l-4 -2q-27 -22 -55 -53q0 -1 -1.5 -3t-2.5 -3.5t0 -1.5l-4 -4q-9 -13 -10 -17l-19 -31q0 -1 -1 -5q-2 -4 -1 -3l-4 -6q0 -4 -4 -16t-4 -19l-2 -8v-10l2 -7v-1v-2h2q0 -5 10 -15l4 -4l12 -8h5l2 -2 q1 0 3.5 -1t4.5 -1q1 0 4 -1t4 -1h2h2h23l8 2h10q14 3 28 7.5t33 11.5t27 10l43 16l2 2h2q8 4 10 4q5 3 19 8l80 39q88 50 147 94q23 15 37 27l2 2h2l8 6l17 15q37 29 65 57q12 12 30.5 10.5t27.5 -16.5q9 -17 14.5 -34.5t6.5 -40t0.5 -35.5t-2.5 -40.5t-3 -36.5 q0 -65 2 -98q3 -43 14 -92l2 -12l3 -9q0 -2 2 -4t4 -3l2 -1h8q4 2 16 6l4 2h2q2 1 6.5 3.5t6.5 3.5q3 2 10 6t10 6q10 8 23 14q2 4 10 8v2q1 0 3 1.5t3 1.5q14 13 41.5 35t36.5 30q6 5 13 12t15 15.5t13 13.5q6 6 16 21l6 8q8 8 9 10q51 68 79 133q5 5 5 10q1 2 3 7.5t3 7.5 q2 4 5 14t5 14q5 16 14 62q0 3 1 8t1 8v2q0 4 2 8q0 5 1 15.5t1 15.5q3 31 0 66q0 22 -2 32q0 13 -2 17v2v6q-8 46 -14 66q-13 44 -20 61q0 2 -1.5 4.5t-1.5 3.5q-2 2 -2 4q-1 2 -3 6.5t-3 6.5q-2 5 -7 14t-7 14q-18 28 -35 53l-2 2q-4 4 -4 7q-8 8 -10 12q-4 3 -21 20 q-4 4 -12 11.5t-12 11.5l-4 2q-2 2 -4 2q-2 2 -6.5 5t-6.5 5l-35 21q-3 1 -10 4t-10 4q-2 2 -10 6h-2l-2 2q-47 17 -84 25q-13 4 -43 8l-7 2h-12q-3 0 -10 1t-10 1q-79 5 -178 -8q-36 -3 -84 -12q-43 -8 -89 -21q-86 -25 -159 -68q-29 -17 -76 -51q-17 -10 -39 -28 q-3 -2 -9 -6.5t-9 -6.5q-1 -1 -4.5 -3t-4.5 -3l-6 -6q-11 -8 -69 -53q-14 -11 -36.5 -28.5t-35.5 -27.5q-82 -68 -133 -124q-65 -68 -103 -140q-3 -10 -10 -20q0 -4 -4 -8l-2 -7l-12 -36q-8 -27 -10 -43q0 -2 -1 -6t-1 -5v-2v-2q-3 -9 -3 -20v-45q0 -12 3 -21q-1 1 0 -4 q0 -8 2 -10q8 -43 14 -59q8 -28 22 -62l2 -8q0 -1 1.5 -2t1.5 -2q1 -2 3 -7.5t3 -7.5q6 -10 14 -30q6 -9 18.5 -29t18.5 -29q4 -4 4 -6q4 0 4 -4q3 -7 10 -10q6 -8 23 -25q10 -10 18 -16q10 -8 27 -16q6 -6 16 -9l2 -2l4 -2q9 -4 31 -8q13 -3 20.5 -17t4.5 -28 q-5 -14 -17.5 -21t-27.5 -4q-120 27 -201 164q-76 124 -90 248z" />
<glyph unicode="A" horiz-adv-x="1667" d="M127 125q0 13 10 23q11 10 25 10q19 3 31 -17q59 103 83 140q-12 1 -35 4t-34 4q-14 3 -21 17t-4 28q6 28 43 24q2 0 6.5 -1t6.5 -1q3 0 9 -1t9 -1q5 -1 16.5 -2t16.5 -2q20 0 28 -2q148 241 301 500q52 83 218 358q-32 82 -35 92q-6 14 2.5 27t21.5 18q13 4 25.5 -3.5 t17.5 -20.5q1 -3 13 -33q7 12 21.5 35.5t21.5 34.5q7 13 22 17q5 1 11 1q9 0 16 -4q12 -8 15.5 -22.5t-3.5 -26.5q-20 -36 -72 -121q2 -5 6.5 -15.5t6.5 -15.5q5 -12 15 -35.5t15 -35.5q0 -1 5 -11q1 -4 0.5 -4t-0.5 2q1 -3 4 -9t4 -9q6 -19 16 -35q110 -255 250 -502 q132 -233 303 -471q5 -7 5 -16q-1 -3 -1 -7q-2 -12 -10 -20q-6 -8 -20 -10t-23 4q-5 4 -15.5 12.5t-15.5 12.5q-21 15 -18 39q-83 118 -142 213q-154 244 -274 489q-90 181 -156 346q-9 -15 -26.5 -44.5t-26.5 -43.5q-288 -480 -305 -508q-63 -100 -109 -178q26 0 76 4 q11 0 31 4h10q6 2 14 2q56 11 62 13q58 12 117 30q34 10 106 41q13 8 27.5 5t21.5 -17q8 -10 4 -26.5t-16 -22.5q-79 -35 -139 -53q-162 -52 -338 -52h-19q-27 -43 -79 -129l-78 -129q-10 -18 -29 -18q-6 0 -12 2q-23 6 -27 35q-1 14 -3 43q-3 44 -3 45zM238 356z" />
<glyph unicode="B" horiz-adv-x="1628" d="M100 1071q76 95 191 170q-2 15 -7.5 44.5t-7.5 45.5q-4 34 25 43q14 5 28 -3t17 -21q2 -12 5.5 -34t4.5 -34q191 101 406 104q89 0 125 -47q16 -22 16 -54q0 -29 -14 -66q-8 -20 -68 -121q-8 -13 -23.5 -39.5t-23.5 -40.5q62 -3 185 -10.5t184 -10.5q72 -5 118 -11.5 t105.5 -29t101.5 -59.5q64 -60 78 -133q3 -18 3 -36q0 -66 -40 -134q-33 -57 -96 -131q-49 -58 -110 -107q-116 -99 -275 -161q-14 -6 -27 2.5t-18 21.5q-4 14 4 26t21 17q2 1 10 4.5t15 6.5t9 3q6 3 18.5 9.5t18.5 9.5q22 11 72 41q13 7 68 45q3 2 15.5 11.5t12.5 10.5 q5 4 15.5 12.5t15.5 12.5q47 42 102 107q7 11 15 16q0 2 6 8q3 5 10 15.5t10 15.5q19 28 28 42t19.5 40.5t10.5 50.5q0 2 -1 15t-1 14q-4 8 -4 14q-1 1 -2.5 4t-2.5 4v4l-4 6q-1 2 -2 5t-2 4q-4 8 -8 12l-4 8l-4 4q-2 4 -8 10q-12 15 -27 27q-2 0 -2 2l-4 2q-2 2 -7 5.5 t-7 4.5q-22 13 -33 17l-6 4q-1 0 -4.5 1t-4.5 1q-3 1 -8 3t-8 3q-41 12 -80 18l-8 3h-10q-6 2 -19 2q-6 1 -19.5 2t-19.5 2q-62 4 -88 4q-62 4 -184.5 11t-183.5 11q-20 2 -30.5 19t-0.5 35q13 23 40.5 69t41.5 68l39 65q12 24 14 29q1 1 4.5 9.5t3.5 10.5q4 12 4 15v2 q0 1 1 2t1 2v10v2l-2 4q-4 11 -6 11l-2 2q-2 0 -2 2q-6 6 -20 6h-2h-4q-17 0 -25 2q-10 0 -29 -1t-28 -1q-5 -1 -14 -2t-13 -2h-14q-1 0 -3 -1t-3 -1h-2q-13 -1 -56 -11q-51 -9 -104 -28q-5 -2 -14.5 -5.5t-14.5 -5.5q-16 -8 -18 -8q-36 -16 -52 -24q-20 -12 -34 -19 q14 -88 26 -145q39 -213 107 -510q70 -289 133 -506q3 -13 -5 -25.5t-22 -17.5q-5 -1 -9 -1q-9 1 -17 5q-14 8 -17 21q-41 141 -78 282q-58 228 -116 508q-39 180 -68 346l-18 -12l-15 -12q-7 -6 -21.5 -18.5t-21.5 -18.5q-48 -48 -75 -82q-10 -11 -26 -10.5t-26 10.5 t-10 24q0 15 10 27zM831 1286v2v-2z" />
<glyph unicode="C" horiz-adv-x="1396" d="M112 432q-5 32 -5 65q1 37 7 75q12 70 33 130t54 129q66 139 137.5 242.5t169.5 173.5q67 48 147 72q57 17 117 17q24 0 48 -2q86 -10 153 -58q28 -21 12 -49q-6 -12 -22 -17t-27 4q-39 28 -68 35q-3 1 -11.5 4t-14.5 4q-21 7 -47 7q-13 1 -26 1l-52 -5q-6 -1 -15.5 -4 t-11.5 -3q-49 -11 -76 -26q-4 -2 -12 -6.5t-12 -6.5q-45 -23 -92 -67q-26 -21 -57.5 -54.5t-39.5 -56.5l-18 -24q-5 -8 -16.5 -25.5t-16.5 -25.5q-70 -119 -127 -252q-2 -4 -5 -14.5t-5 -14.5q-10 -26 -18 -64q-10 -34 -13 -59q0 -1 -1 -4t-1 -4v-6v-17q-2 -10 -2 -28 q0 -25 2 -35v-8q1 -2 2 -7.5t2 -7.5q4 -16 13.5 -46t13.5 -34q2 -4 14 -22q1 -3 4 -8t4 -6t2.5 -3.5t2.5 -3.5h2q2 -3 7 -9t7 -9q10 -12 42.5 -40.5t39.5 -29.5q40 -26 96 -53q3 1 11 -2.5t10 -5.5q4 -2 14 -5t14 -5q18 -7 64 -21q70 -23 129 -31q5 -1 35 -6q20 0 24 -4 q46 -4 66 -4q34 -3 67.5 -3t65.5 3q21 0 67 4q8 4 29 4q5 1 15.5 3t15.5 3q60 11 131 31q13 4 26.5 -3t16.5 -21q1 -5 1 -9q0 -10 -4 -18q-8 -14 -22 -18q-8 -2 -21 -6t-23.5 -6.5t-20.5 -4.5q-140 -34 -280.5 -34.5t-280.5 34.5q-132 31 -244 92q-119 66 -178 162 q-37 59 -48 127z" />
<glyph unicode="D" horiz-adv-x="1935" d="M102 1276q0 20 23 31q24 8 37 -9q5 -5 13.5 -13t16 -15.5t13.5 -14.5q11 -11 11 -25t-11 -26q-10 -10 -23 -10q3 -36 23 -190q3 -15 8 -60q2 -11 4 -27.5t4 -27.5q6 -56 15 -109q22 95 67 178q93 176 264 279q177 100 377 115q34 2 68 2q179 0 364 -62q225 -65 336 -184 q69 -69 92 -154q9 -37 9 -73q0 -64 -27 -127q-41 -95 -119 -170q-51 -49 -172 -129q-170 -108 -387 -222q-149 -82 -401 -192q-34 -15 -50 10q-8 10 -3.5 26.5t16.5 22.5q74 32 98 43q198 89 387 195q154 86 191 108q98 58 178 111q5 4 22 17t25 20q1 1 4.5 3.5t5.5 4.5 q3 2 9 7t9 7q33 29 70 72q2 2 12 16t11 15q3 7 22 45q7 12 17.5 45t9.5 41l2 41q0 16 -2 22v9q-2 4 -2 10q-26 65 -29 69q-1 1 -4.5 6t-8 11.5t-9 12.5l-7.5 10t-4 3q-3 9 -12 15l-31 31q-2 1 -5 4t-5 4q-6 0 -18 12q-69 44 -74 47q-21 9 -39 21q-3 1 -16.5 6.5t-22.5 7.5 q-98 42 -199 65q-106 24 -204 29q-72 0 -105 -2q-5 -1 -14 -2t-14 -2q-46 0 -62 -8q-13 -2 -88 -21q-7 -3 -22.5 -8t-22.5 -8q-5 0 -37 -16q-14 -6 -82 -41q-10 -6 -39 -25q-8 -4 -18 -14q-1 -1 -4 -3t-4 -3q-1 0 -2 -1.5t-2 -1.5q-1 -2 -3 -2q-52 -47 -63 -59 q-13 -13 -33 -37l-8 -8q-1 -1 -2.5 -3t-2.5 -3t-1 0q-10 -15 -12 -17q-31 -46 -50 -81q-3 -7 -10 -21.5t-10 -21.5q-1 -1 -2 -4t-2 -5q0 -4 -4 -8q0 -1 -3.5 -9t-4.5 -13q-29 -87 -45 -185v-8q-3 -6 -3 -12q-2 -8 -2 -23q-4 -32 -4 -49v-14q0 -3 1 -9.5t1 -9.5 q63 -343 93 -477q3 -14 -4.5 -26.5t-22.5 -16.5q-4 -1 -8 -1q-8 0 -16 5q-12 8 -17 21q-18 43 -39 100q-56 187 -56 375q0 19 1 37q-22 126 -39 239q-38 272 -62 492z" />
<glyph unicode="E" horiz-adv-x="2011" d="M88 586q-1 4 -1 8q-1 10 5 20q8 14 21 17q96 26 176 45q20 5 112 29q1 13 3.5 39t3.5 40q21 194 32 283q-64 -31 -123 -66q-14 -7 -27.5 -3t-21.5 16q-7 12 -3 27.5t16 21.5q65 39 172 88q7 64 22 158q1 12 11.5 19t23.5 7q10 1 20 -7t13 -19q5 -3 0.5 -22.5t-4.5 -24.5 q0 -11 -7 -40.5t-4 -37.5q129 56 308 102q196 49 381 60h2q13 0 22 -10q10 -11 10 -25q1 -14 -9.5 -24.5t-24.5 -12.5q-39 -2 -107 -10q-4 0 -12.5 -1t-12.5 -1q-5 0 -11.5 -2.5t-10.5 -2.5q-34 -4 -49 -8q-188 -30 -365 -94q-14 -5 -43 -16.5t-43 -16.5q-8 -4 -20 -8l-6 -4 q-7 0 -11 -4q-2 -1 -5 -2t-5 -2q-2 -20 -7 -61t-7 -62q-22 -186 -27 -254q-2 -2 -2 -4q167 37 442 88q34 3 46 -27q3 -13 -5.5 -27.5t-21.5 -15.5q-112 -19 -176 -32q-138 -25 -291 -62q-1 -8 -2 -24.5t-2 -24.5v-61q0 -5 1 -16.5t1 -16.5q0 -1 1.5 -7t2.5 -11t0 -5 q4 -26 12 -45q1 -3 7.5 -19.5t7.5 -19.5q1 -2 9.5 -18.5t14.5 -24.5l12 -18q4 -7 9 -10q29 -40 67 -74q16 -12 21 -17l2 -2q2 0 2 -2q2 -1 5 -3t5 -3q18 -13 41 -26q35 -20 41 -23q12 -7 29 -14q1 0 10 -4t10 -4q51 -21 109 -33q53 -14 114 -23h4q5 0 7 -2h14q4 -1 13.5 -2 t13.5 -2q40 -4 57 -4q140 -10 252 -10q226 0 446 24q-2 0 -6 4q0 1 -4 5q-4 2 -4 4q-2 1 -7 4t-7 4q-1 1 -3.5 2t-3.5 2l-6 2q-2 1 -7 2t-7 2q-15 5 -22 17.5t-3 27.5q3 13 16 20.5t27 4.5q43 -12 77.5 -41.5t53.5 -69.5q4 -11 4 -20.5t-4 -16.5q-10 -15 -30 -18 q-12 -1 -33.5 -3t-32.5 -3q-208 -24 -427 -24q-45 0 -91 1q-140 3 -252 14q-127 13 -237 48q-232 77 -338 249q-60 97 -66 207q-1 12 -1 27q0 31 3 78q-130 -30 -260 -68q-15 -3 -27.5 4t-17.5 21z" />
<glyph unicode="F" horiz-adv-x="1212" d="M129 930q3 12 14 18q49 34 140 86q5 3 37 20t49 25q1 14 -1 22.5t-1 22.5q8 93 12 117q5 22 20.5 36t36.5 7q24 -8 29 -32t-16 -38q-2 -2 -6 -3.5t-5 -2.5q-2 -6 -2 -18q-3 -18 -6 -33q0 -13 -4 -33q-1 -16 3 -16q2 -1 3 2q89 41 401.5 147t419.5 134q4 1 7 1l17 -5 q12 -7 13 -19q2 -5 2 -10q0 -8 -4 -14q-6 -12 -18 -15q-58 -14 -154 -45q-45 -14 -291.5 -97t-275.5 -95q-5 -2 -15.5 -6.5t-15.5 -6.5q-8 -5 -31 -14q-41 -18 -55 -27q0 -122 51 -469q31 8 310 84t303 82q13 3 24.5 -3.5t14.5 -18.5q4 -12 -2.5 -24t-18.5 -15 q-21 -5 -287.5 -79t-291.5 -79q-7 -2 -20.5 -5t-20.5 -5q4 -18 11 -53t11 -52q5 -21 31.5 -148.5t51 -240t34.5 -149.5q29 -110 29 -191q0 -40 -7 -73q-1 -12 -13 -18q-8 -4 -16 -4l-8 1q-13 3 -19 14.5t-3 24.5q0 6 4 18v9v8q2 12 2 39q-3 37 -10 67q-1 5 -37 152 q-18 71 -63.5 287.5t-57.5 291.5q-64 -16 -125 -35t-125 -36q-12 -3 -24 4t-15 20q-3 11 4 22.5t19 14.5q10 2 58.5 18.5t104.5 33t93 22.5q-42 240 -51 338q-4 78 -4 117q-118 -63 -193 -113q-11 -7 -24 -3.5t-19 13.5q-5 8 -5 17q0 4 1 8z" />
<glyph unicode="G" horiz-adv-x="1390" d="M77 536q-4 37 -4 74q0 83 21 160q29 121 101 240q32 54 75 110q42 51 82 86q54 48 107 72q112 46 223 55q31 3 63 3q203 0 402 -113q13 -7 16.5 -22t-4.5 -27q-6 -12 -21.5 -16t-27.5 3q-48 26 -59 31q-7 3 -25 11.5t-31 13.5q-50 19 -114 32q-4 1 -29 6q-2 0 -6.5 1 t-7.5 1q-6 0 -7 1l3 -1q-9 1 -27 3.5t-27 3.5q-23 2 -46 2l-46 -2q-7 -1 -21.5 -3.5t-21.5 -3.5l5 1h-1q-5 -1 -6 -1q-8 0 -10 -2q-3 0 -9.5 -1t-9.5 -1q-46 -9 -116 -36v1l-2 -1q-1 -1 -3.5 -2.5t-3.5 -2.5q-6 -2 -14 -6q-16 -8 -24 -14q-12 -6 -66 -56t-55 -57 q-1 -2 -11 -12l-1 -1l-1 -1q0 -2 -4 -6q-10 -15 -16 -23q-33 -50 -35 -53q-29 -44 -57 -109l-4 -8h1q-2 -3 -3 -4q-4 -8 -4 -14q-9 -19 -11 -25q-12 -29 -18 -61q-13 -23 -21 -115q-1 -24 -1 -47q0 -38 3 -72l1 -1l2 -1v-6q0 -2 1 -6t1 -6q4 -16 4 -25q1 -4 6.5 -21t7.5 -26 q2 -4 5 -11t5 -11q-2 4 -1 -1q1 -2 1 -3q1 -2 3 -5.5t3 -5.5q8 -18 23 -41q22 -33 27 -39l4 -4q1 -2 3 -5t3 -5q3 -2 5.5 -4.5t5.5 -6t5 -5.5q21 -21 33 -31q7 -7 53.5 -40t54.5 -36q25 -14 43 -22q3 -2 11.5 -5t11.5 -5q5 -5 10 -5q1 -1 -2 0q2 -2 6 -2q33 -13 90 -32 q75 -19 95 -23q4 -1 13 -3t13 -3q2 0 7.5 -1t7.5 -1h6q-3 0 -0.5 -1t4.5 -1q40 -4 63 -4q42 0 62 2q23 0 35 2h6q1 0 5 1l-3 -1q6 2 14 2q72 14 117 31q3 1 8 3t8 3q1 0 4 1q1 1 0.5 0.5t-2.5 -1.5q1 1 3 2t3 2q10 3 17 8q7 2 33 18q2 1 8 5.5t8 5.5q4 4 8 6l-2 -2l2 2 q15 12 27 24q13 13 22 25l2 2q3 3 7.5 10.5t7.5 10.5q4 8 16 28q19 38 19 51q1 3 2 8.5t2 8.5l1 6q0 6 0.5 14.5t0.5 16.5q0 21 -4 49q-1 4 -4 11t-7.5 18t-7.5 18q-2 4 -7 12t-7 12l2 -2l-2 2q-1 1 -3 3.5t-3 3.5t-5 4.5t-6 5.5l-10 10q-1 1 -3 2t-3 2t0 1t4 -3q-1 0 -2 1 t-2 1q-18 13 -27 17q-32 18 -81 25q-28 3 -54 3q-20 0 -39 -2q-1 0 -43 -6q-16 -2 -53 -10q-63 -13 -115 -27q-20 -5 -112 -35q-18 -7 -29 -10l-12 -6l-8 -3q0 1 2 1q-4 -1 -47 -23q-31 -14 -50 15q-7 11 -3 26t16 23q59 27 104 45q105 36 238 63q98 21 164 21q20 0 38 -2 q88 -10 148 -53q60 -42 88 -113q17 -48 17 -97q0 -19 -3 -38q-9 -68 -45 -129q-92 -150 -313 -191q-67 -12 -132 -12q-71 0 -140 14q-98 18 -191 56q-222 89 -319 243q-62 97 -75 221z" />
<glyph unicode="H" horiz-adv-x="1361" d="M123 471q-2 6 -2 12q0 13 12 23q2 2 35 24q50 33 123 50q-9 120 -9 244q0 74 3 149q12 276 92 538q9 25 35 25h8q12 -3 19.5 -16.5t4.5 -26.5q-45 -125 -73 -297l-4 -61q-6 -35 -9 -68q-6 -68 -6 -135q-3 -68 -3 -136.5t3 -136.5q0 -13 1 -35t1 -34q24 5 69 10.5t56 7.5 q66 8 155 25.5t146 25.5q124 16 164 41q8 4 17 7l4 4l2 2q88 80 88 185v13q-2 37 -7 98.5t-6 82.5q0 59 -6 178q-6 103 -6 166v18q0 12 9 22t24 11q13 0 23 -11t12 -22q3 -164 14 -317q10 -252 53 -590q6 -50 19.5 -124.5t19.5 -121.5q6 -41 47 -293v-6q-1 -10 -5 -18 q-6 -12 -19 -15q-5 -2 -10 -2l-14 5q-12 8 -13 20q-10 54 -55 327q-46 324 -58 447q-10 -37 -33 -64q-27 -38 -74 -61.5t-78 -30t-97 -15.5q-13 -2 -19 -3q-62 -8 -153 -25.5t-154 -25.5q-21 -2 -111 -17q28 -316 39 -413q1 -11 -7 -20.5t-19 -12.5q-15 -9 -33 14 q-140 190 -215 379zM193 471q6 -12 12 -27q1 -2 22 -49q5 -8 47 -90q29 -49 45 -69q-7 74 -18 184q-4 32 -8 92q-3 -1 -8.5 -1.5t-9.5 -1.5t-7 -3q-8 -2 -16 -6q-5 -3 -19.5 -9t-25 -11t-14.5 -9z" />
<glyph unicode="I" horiz-adv-x="632" d="M170 879q-3 65 -3 129q0 249 46 493q3 14 15 21q9 5 18 5q4 0 8 -1q14 -3 21.5 -15.5t5.5 -27.5q-9 -41 -15 -84q-1 -11 -3.5 -25t-4 -25.5t-2.5 -25.5q-12 -110 -14 -166q-5 -79 -4 -164q0 -64 2 -131q3 -74 12 -149q5 -53 8 -74q0 -3 2 -15t2 -18q3 -15 6 -33 q20 -139 62 -292q19 -75 43 -142q11 -44 18 -51q4 -13 29 -12.5t33 -14.5q5 -6 5 -14q0 -5 -2 -11q-5 -16 -18 -22q-14 -8 -31 -8q-9 0 -18 2q-7 1 -37 21q-30 30 -41 65q-31 95 -49 168q-82 312 -94 617z" />
<glyph unicode="J" horiz-adv-x="1275" d="M94 246v6q0 15 10 24q28 20 41 35q10 9 26 8.5t26 -10.5q9 -9 8.5 -24.5t-10.5 -24.5q0 -2 -2 0q246 -106 413 -160q18 -6 53.5 -17t53.5 -17q9 -3 30.5 -10t37.5 -11.5t32 -7.5q4 -4 10 -4q5 0 6 -2q3 0 10.5 -1.5t11.5 -1.5t10 1.5t11.5 7t10.5 14.5q6 9 6 25q4 8 4 16 q23 189 51 445q5 45 23 202t26 244q28 209 54 449q3 32 34 32h4q12 0 21 -10q9 -9 9 -18q0 -3 -1 -6q0 -2 -6 -56q-8 -80 -25.5 -233.5t-25.5 -227.5q-9 -76 -26.5 -228t-26.5 -228q-5 -65 -27 -232q-1 -17 -3 -36t-5 -41.5t-4 -36.5q-8 -74 -27 -103q-28 -47 -90 -47h-5 q-29 0 -85 19q-118 32 -217 69q-204 71 -430 170q-15 7 -17 27z" />
<glyph unicode="K" horiz-adv-x="1619" d="M102 1477q0 35 33 61q12 7 25 7q8 0 17 -3q22 -8 28 -31q3 -14 -4.5 -26.5t-20.5 -16.5q-2 -2 -6 -2v-4q0 -28 4 -82q4 -112 8 -166q16 -283 41 -524q31 50 97 123q62 71 145 135q85 66 170 109q29 15 59.5 20.5t62 -3.5t48.5 -38q7 -12 3 -26.5t-15 -22.5 q-12 -7 -26.5 -3.5t-22.5 15.5q0 1 -4.5 5t-6.5 4h-8h-10q-13 0 -35 -11q-1 0 -4 -1t-4 -1q-1 -1 -3 -2t-3 -2q-18 -9 -21 -10q-25 -14 -41 -25q-40 -24 -78 -51q-12 -8 -16 -12q-6 -4 -6 -6q-2 -1 -5 -3t-5 -3q-24 -20 -35 -31q-71 -62 -129 -135l-8 -8l-2 -5l-15 -20 q-7 -8 -26 -37q-15 -21 -27 -45q0 -1 -1 -3t-1 -3q-4 -4 -4 -12q-6 -12 -6 -23q-2 -2 -2 -10q0 -4 1 -8.5t1 -8.5q0 -1 1 -4t1 -4q2 -2 2 -4q1 -1 2 -3t2 -3l4 -8q1 0 2 -1t4.5 -5.5t9.5 -10.5q2 0 6 -3t5 -3q10 -8 34 -20q2 -1 14 -5.5t19 -6.5q7 -3 22.5 -8.5t22.5 -8.5 q17 -5 52 -15.5t53 -15.5q173 -43 213 -51q19 -3 54.5 -10t53.5 -10q39 -5 53 -8q7 0 27 -5q11 0 23 -2q194 -24 390 -24h44q14 0 24.5 -11.5t12.5 -25.5q0 -13 -11.5 -24t-25.5 -11q-18 -2 -55 -2q-246 3 -467 39q-218 33 -447 104q-101 31 -133 52q2 -27 10 -86 q5 -40 13.5 -109t11.5 -92q13 3 26 -4q13 -6 16.5 -20.5t-3.5 -26.5q-7 -15 -31 -64q-8 -17 -27 -17q-4 0 -8 1q-10 0 -20 7t-11 17q-25 185 -45 359q-38 316 -59 627q-7 95 -20 315q-1 13 -2.5 38t-2.5 38q0 9 -2 37q-1 17 0 29v14z" />
<glyph unicode="L" horiz-adv-x="1705" d="M53 862q-1 31 -1 62q0 292 77 589q3 13 15 21q9 5 18 5q4 0 8 -1q14 -3 22 -16.5t5 -26.5q-12 -41 -21 -78q-22 -92 -29 -157q-1 -4 -2 -12.5t-2 -14.5t-2 -10q0 -13 -4 -37q-4 -28 -8 -80q-8 -99 -8 -192q0 -64 4 -126q2 -25 6 -71q2 -6 2 -19q2 -2 2 -6v-6 q1 -6 3 -16.5t3 -16.5q12 -77 35 -137q9 -27 25 -59q24 -48 35 -62q18 -27 24 -33l10 -10q20 -27 39 -43q4 -3 11.5 -9t11.5 -9q8 -8 12 -10q4 -4 4 -5l-1 2q3 -3 3 -4q20 -17 49 -30q11 -8 52 -31q4 -2 13 -6t13 -6q16 -16 65 -32t114 -31l65 -15q39 -8 59 -10q6 -2 17 -2 q4 -2 21 -3t18 -2q4 -1 133 -12q194 -14 329 -14q98 -2 160 -2q41 0 65 1q61 2 224 17q13 1 23 -9t12 -24q0 -14 -11 -24t-24 -12q-35 0 -82 -7q-155 -14 -231 -14q-5 0 -10 -1q-75 0 -220 7q-149 3 -317 19q-138 13 -256 41q-270 62 -414 235q-90 106 -125 245t-39 310z " />
<glyph unicode="M" horiz-adv-x="2314" d="M137 1444v6q1 8 5 18q6 12 18 17q12 2 25 -5t14 -20q22 -143 24 -157q23 30 58 36q14 3 28 3q26 0 49 -11q55 -20 111 -63q14 -10 27.5 -20.5t29 -24t25 -22t27.5 -26.5t23 -23.5t26 -27t24 -24.5q57 -57 86 -84q5 -6 12 -13t15.5 -15t13.5 -13q1 -1 10 -8t15 -11 q2 -4 10 -8l4 -4l2 -2q53 -39 96 -59l21 -9q6 -1 15 -4l12 -4q12 -5 28 -8q9 0 15 -2h6l2 -2q30 -4 30 -31q0 -13 -9.5 -23t-22.5 -7q-94 9 -183 65q-59 38 -118.5 94.5t-123.5 124t-112 107.5q-14 9 -22 20h-7q0 1 -1 2t-1 2q-8 8 -10 9q-19 14 -51 32q-3 1 -12 7t-15 8 q-4 4 -8 4q0 1 -2 2t-5 2l-4.5 1.5t-2.5 0.5q-3 1 -9.5 3t-9.5 3h-6q-14 0 -18 -2l-4 -2l-2 -2l-6 -6l-3 -2q-1 -1 -3 -4.5t-3 -4.5v-6q-2 -2 -2 -6q-1 -3 -2 -7.5t-2 -6.5v-2v-4v-6q-2 -8 -2 -19q0 -6 -1 -21t-1 -22v-65q1 -9 4 -27t4 -27q21 -127 59.5 -365.5t55.5 -344.5 q4 -33 -23 -39q-25 -6 -36 22q-41 120 -84 310q-33 190 -41 346q-2 41 -2 123q-10 58 -30 176.5t-30 177.5zM956 1098q-9 11 -9 22t11 21q64 57 162 127q249 179 555 274q4 1 9 1l15 -4q12 -7 17 -19q4 -30 -24 -39q-11 -4 -172 -62h-4q0 -1 -3 -4q-2 0 -10 -4 q-1 -1 -7 -2.5t-9 -3.5q-14 -7 -35 -14q-52 -27 -70 -35q-5 -4 -18 -11t-18 -10q135 49 276 74q31 0 39 -25q3 -9 14 -53q91 -341 207 -647q10 -26 31 -78.5t31 -79.5q11 -30 32.5 -82.5t28.5 -70.5q76 -173 141 -305q6 -11 6 -20q0 -15 -16 -25q-6 -4 -14 -4q-4 0 -10 2 q-14 4 -19 14q-22 40 -29 57q-144 301 -264 629q-107 293 -192 620q-6 -1 -17.5 -4t-17.5 -4q-157 -31 -301 -94l-8 -4q-5 0 -9 -2q-3 -1 -9 -4t-9 -4q-5 -2 -35 -17q-56 -29 -67 -37q-90 -48 -138 -81q-23 -16 -41 8z" />
<glyph unicode="N" horiz-adv-x="1705" d="M176 1006q-3 41 -3 78q0 62 9 116q15 86 72 150q10 10 26.5 10t28.5 -10q10 -11 9.5 -26t-9.5 -26q-2 -2 -4.5 -5.5t-3.5 -4.5q-4 -4 -4 -8q-3 -3 -8.5 -12.5t-7.5 -12.5l-2 -10v-2l-5 -4q-2 -6 -6 -22q-10 -23 -10 -48h16q176 -44 310 -145q64 -37 145 -115 q8 -10 28 -30.5t29 -32.5q43 -55 56 -64l4 -4q1 0 2.5 -1t3.5 -1q4 -4 6 -4q7 -3 12 -4h13h1h9q1 0 3 1l4 2l3 1q1 1 3 2t3 2q7 6 17 10l6 2q5 2 8 9q2 2 4.5 5t4 4.5t3.5 2.5l6 8q0 5 5 10q6 6 10 21q16 25 20 39q45 68 54 78q12 13 29.5 13t29.5 -13q9 -11 9 -27t-9 -27 q-1 -2 -4.5 -4.5t-5.5 -5.5l-2 -4q-10 -13 -17 -18q-5 -16 -22 -41q-25 -54 -51 -90q-24 -24 -54 -40t-66 -20q-7 -1 -14 0q-28 0 -55 14q-22 13 -65 64q-10 13 -31 35.5t-27 29.5q-42 47 -59 60q-36 31 -39 33q0 1 -8 6q-2 0 -2 4h-2q-2 3 -17 14q-68 48 -149 86 q-22 9 -27 10q-1 0 -4 1.5t-4 1.5q0 1 -3 2t-3 2q-17 9 -39 14q-6 2 -17.5 7t-17.5 7q0 -117 4 -178q7 -125 17 -213q17 -163 24 -211q30 -215 90 -424q3 -16 -4 -29.5t-24 -17.5q-6 -1 -11 -1q-11 0 -21 5q-15 8 -20 23q-70 220 -131 536q-37 215 -49 437zM1270 645 q-12 134 -12 268q0 293 57 584q0 14 15 22q11 6 21 6q4 0 7 -1q35 -9 28 -49q-26 -150 -36 -283q-13 -163 -13 -293q0 -197 29 -424q1 -18 6 -53t6 -45q3 -15 9.5 -50t9.5 -55q21 -110 33 -153q5 4 14.5 9t13.5 9q12 9 28.5 4.5t24.5 -16.5q5 -8 5 -17q0 -19 -21 -40 q-9 -5 -32.5 -21t-37.5 -24q-11 -7 -21 -7q-7 0 -14 4q-17 8 -22 23q-77 302 -98 602z" />
<glyph unicode="O" horiz-adv-x="2283" d="M184 832q-3 35 -3 71q0 123 40 244q66 175 182 272q88 70 160 90q58 23 126 23q27 0 56 -4q13 -1 21.5 -16t5.5 -29q-13 -32 -47 -29q5 0 -0.5 1t-7.5 1h-15h-24q-17 0 -25 -2h-10q-4 -2 -14 -2q-34 -7 -51 -14q-2 -1 -6.5 -3.5t-8 -5t-4.5 -2.5q-3 -1 -7 -3l-7 -3.5 t-6 -3.5q-18 -8 -50 -28q-2 -1 -10 -9l-8 -4q-12 -12 -18 -16q-47 -40 -72 -74l-4 -8q-6 -6 -6 -8q-9 -9 -11 -15q-12 -20 -20 -28q-5 -10 -11 -21.5t-12.5 -25t-9.5 -19.5l-4 -8q0 -2 -1 -4.5t-1 -3.5q-1 -3 -3 -9.5t-3 -9.5q-8 -20 -8 -34q-14 -45 -19 -74q-4 -8 -4 -33 q-1 -5 -2 -17t-2 -16v-80q0 -26 2 -38q0 -4 1 -11t1 -10v-8q2 -2 2 -4q3 -33 13 -76q4 -12 10 -36t10 -36q6 -21 12 -39q2 -2 3.5 -4.5t2.5 -3.5q0 -1 1 -3t1 -3l7 -14q46 -94 75 -135q7 -4 15 -17l2 -4l6 -6q3 -5 25 -27q27 -30 57 -57q5 -5 16.5 -14.5t16.5 -14.5 q2 -2 7 -6t7 -6h4v-2q4 -4 6 -4q47 -37 68 -47q65 -36 71 -39q8 -3 21.5 -11t17.5 -10q3 0 11 -4l4 -2q12 -4 16 -6q49 -19 158 -47q12 -2 39.5 -7t42.5 -7h10l4 -4q12 0 21 -3q7 0 20.5 -1t19.5 -1q40 -3 81.5 -3t84.5 3q7 0 21.5 1t21.5 1q9 3 21 3q1 0 3 2t3 2h6 q45 7 78 14q72 14 152 43q3 2 17 7t15 5q3 2 16 8t19 11q14 6 70 37q11 7 63 43l8 6q3 4 5 4q8 8 16 12q10 7 24 25q35 28 54 55q22 22 22 25l21 28q12 20 35 68q0 1 1 4t1 4l2 4q5 15 6 19q8 20 12 34q7 21 10 39q0 4 2 19t2 16q2 29 2 82q-2 8 -2 25q0 1 -1 3.5t-1 4.5v4 q-4 26 -8 41q-4 27 -24 82q0 6 -4 14l-3 4q-1 3 -5 9.5t-5 9.5q-12 30 -14 34q-17 30 -47 72q-4 4 -6 8l-4 6l-15 15q-20 26 -26 30q-26 30 -68 60l-4 4h-2q-4 4 -8 6q-2 3 -9 8t-8 6q-30 20 -37 25q-71 37 -77 39q-3 2 -10.5 5t-10.5 5l-6 2q-3 2 -6 3.5t-4 2.5l-39 13 q-59 20 -88 26q-7 1 -86 19q-4 2 -15 2l-8 2q-12 0 -18 2q-11 0 -43 4q-1 0 -41 0.5t-41 -0.5q-29 0 -45 -2h-21q-2 -2 -8 -2h-6q-30 -5 -78 -19q-18 -3 -39 -10q-12 -4 -18 -10h-2h-2l-8 -4q-39 -15 -68 -39l-10 -4l-4 -4q-4 -2 -15 -13q0 -4 -4 -4q25 -32 41 -59 q9 -12 4.5 -28t-16.5 -25q-31 -15 -53 14q-14 23 -58 82q-6 11 -4 24t10 21q98 110 254 141q86 17 178 17q74 0 152 -11q188 -30 347.5 -123t250.5 -245q94 -154 94 -324v-10q-3 -172 -104 -307q-89 -127 -231 -209.5t-308 -116.5q-120 -27 -246 -27q-45 0 -89 4 q-172 12 -328 72q-159 62 -286.5 171.5t-197.5 254.5q-71 148 -86 306z" />
<glyph unicode="P" horiz-adv-x="1349" d="M186 1430q-2 10 -2 19q0 19 8 39q12 30 39 42q11 4 20 4t17 -4q18 -10 21 -33q0 -4 1 -12t1 -12q0 -2 1 -6t1 -5v-4q1 -7 3 -21.5t3 -21.5q6 -41 12 -84q5 -40 6 -47q69 35 95 45q91 32 159 45q118 23 232 23q79 0 158 -11q111 -15 167 -71q37 -46 46 -80q4 -15 4 -30 q0 -29 -13 -62q-26 -59 -123 -117q-85 -50 -165 -82q-171 -73 -359 -88q-14 -1 -25.5 11t-11.5 26q0 33 37 37q5 1 16 2t17 2q8 0 14 2h4h4q9 2 30 5t30 5q61 12 123 31q9 3 28.5 9t28.5 9q5 2 15.5 6.5t15.5 6.5l12 6h4q2 2 4 2q52 21 111 55q39 22 74 47q2 2 4 2v2 q1 1 4 3t4 3q11 11 14 13l12 12q3 2 3 4l6 6q4 8 4 11l2 2v2q1 2 2 6t2 6v6v10v1v3q-2 2 -2 7q0 9 -11 27q-2 4 -3 3q1 0 -3 4l-6 6q-3 2 -14 13l-4 4h-2q-4 4 -8 6q-3 2 -9.5 5t-9.5 5q-2 0 -6 4l-6 2q-12 3 -21 9q-25 7 -45 10q-2 0 -5.5 1t-4.5 1h-8q-3 1 -9 2t-9 2 q-53 5 -108 5q-41 0 -83 -3q-15 0 -51 -4q-8 0 -10 -2h-9q-3 -1 -10 -2t-10 -2q-21 -3 -92 -21q-17 -3 -92 -26q-10 -3 -43 -17q-1 0 -4.5 -1t-4.5 -1q-4 -2 -6 -2l-16 -8q-13 -5 -39 -23l-12 -6q2 -8 5 -25t5 -26q21 -137 66 -342q41 -191 77 -321q9 -30 62 -207.5 t69 -251.5q3 -13 -10 -24t-26 -11q-26 0 -33 27q-115 346 -189 682q-37 159 -88 428v-2q-1 -1 -2 -4t-2 -5q0 -4 -4 -16v-6v-6v-19v-2v-2q0 -1 1 -4t1 -4t1 -4t1 -4l2 -6q1 -1 6 -11q4 -4 4 -6q2 0 4 -1t3 -1q9 -11 9.5 -25.5t-9.5 -25.5q-12 -11 -28.5 -11t-25.5 11 q-40 42 -40 104q0 20 4 41q9 62 59 109q-4 28 -12.5 83.5t-12.5 82.5q-14 -2 -26 6t-15 21z" />
<glyph unicode="Q" horiz-adv-x="1804" d="M152 899q47 131 182 303q131 167 246 242q139 94 293 94h10q174 -7 274 -121q9 -11 9.5 -24.5t-9.5 -24.5q-11 -11 -27.5 -11.5t-25.5 11.5q-7 9 -39 34.5t-37 24.5q-9 6 -18 9l-4 4h-7q-5 2 -16 6t-16 6q-6 1 -18.5 4t-18.5 4h-10q-4 2 -17 2q-19 2 -37 2t-35 -2 q-8 0 -12 -2h-2q-3 0 -8.5 -1t-7.5 -1q-26 -4 -37 -8q-14 -2 -37 -10q-4 -2 -16 -6v-2h-2q-1 -1 -4.5 -2.5t-4.5 -2.5q-12 -5 -75 -38q-24 -16 -35 -27q-1 -1 -3 -2t-3 -2l-6 -4l-13 -13q-67 -55 -123 -120q-7 -9 -26.5 -31t-28.5 -35q-6 -6 -14 -18l-3 -4q-3 -4 -5 -5 l-3 -6q-16 -20 -24 -32q-54 -70 -88 -146q-9 -18 -10 -22q-1 -1 -1.5 -2.5l-1 -3t-1.5 -3.5l-3 -4q-1 -2 -6 -18t-6 -23q-9 -17 -12 -41q-1 -3 -2 -9t-2 -9q0 -2 -1 -5t-1 -5v-6q-3 -21 -3 -45q0 -15 1 -31l2 -2v-2q0 -7 2 -11q0 -6 4 -18q3 -13 10 -35q0 -1 2 -5t2 -5l4 -8 q1 -2 4.5 -7.5t4.5 -7.5q8 -12 10 -14l4 -8q4 -4 13.5 -15t18 -19t17.5 -13l4 -4q4 -2 8 -6q1 -1 6.5 -5.5t8.5 -5.5q14 -10 28 -16q5 -3 19 -8q1 -1 3 -2t3 -2h4q17 -10 33 -13q42 -13 71 -18q24 -4 35 -4h6q2 0 5.5 -1t5.5 -1q10 0 16 -2q36 -3 72.5 -3t74.5 3q50 4 78 4 q2 0 4 2h11q2 1 7.5 2t8.5 2q6 1 18.5 3t18.5 3q76 16 143 39q10 4 39 14q1 1 3.5 3t4.5 4q2 0 4 2q6 3 15 6q20 8 30 14l-14 14q-54 59 -81 90t-63 87.5t-50 109.5q-11 41 -11 81q0 44 13 87q18 67 77 139q55 60 130 95t155 38q10 1 20 1q72 0 137 -33q73 -36 107 -109 q27 -59 27 -126q0 -89 -47 -191q-91 -180 -285 -301q26 -28 79.5 -85t80.5 -85q137 -152 280 -301q10 -13 10 -29q0 -15 -10 -25q-11 -9 -26 -10h-1q-15 0 -26 10q-138 152 -235 254q-42 46 -119 130t-94 102q-76 -35 -113 -45q-145 -56 -301 -68q-51 -4 -97 -4 q-115 0 -204 25q-178 53 -248 165q-52 81 -52 179q0 69 26 147zM940 936q0 -5 2 -23t5 -35t5 -16q7 -14 9 -22h2v-2q1 -2 2 -5t2 -4q12 -24 18 -34q23 -35 25 -37q2 -3 6 -8.5t6 -8.5l6 -6l2 -6q9 -10 27.5 -31.5t27.5 -31.5q11 -12 34 -36.5t34 -37.5q6 3 17.5 10t17.5 10 q4 4 8.5 7.5t11 8t9.5 7.5l6 6l4 2q2 2 6.5 5.5t7.5 6.5q58 49 102 101q2 3 13 14l4 4q4 4 6 8q13 17 20 29q32 53 37 63q3 9 9 21q0 4 2 4q0 2 1 4.5t1 3.5q2 6 6 18.5t6 18.5q4 13 8 39q0 1 1 4t1 4q0 3 1 11.5t1 11.5v39q0 10 -2 16v4q0 4 -2 6q-4 25 -10 35l-2 6 q0 2 -2 6q-3 10 -8 17q-1 2 -5 6.5t-6 7.5l-2 4l-6 6q-5 5 -27.5 21.5t-25.5 15.5q-1 1 -4 2t-4 2q-2 0 -2 2q-12 4 -17 4q-27 9 -37 9l-2 2h-8q-12 0 -18 2q-25 0 -41 -2h-8q-5 -2 -7 -2q-8 0 -14 -2q-4 -1 -16 -4.5t-19 -4.5q-3 -1 -8 -3t-8 -3q-1 -1 -4 -2t-4 -2 q-4 -2 -6 -2q-43 -19 -64 -35q-8 -4 -10 -6q0 -4 -6 -4q-1 -2 -5.5 -5.5t-5.5 -4.5q-12 -10 -26 -27q-2 -2 -8 -7.5t-9 -8.5q-3 -4 -14 -19t-12 -16q-11 -19 -17 -33l-2 -4q0 -1 -1 -4t-1 -4l-6 -18q-4 -12 -4 -21q-2 -2 -2 -8v-6q-2 -10 -2 -33z" />
<glyph unicode="R" horiz-adv-x="2443" d="M173 1254q-2 14 -2 27q0 37 19 65q14 21 33 38t45.5 31.5t44 22t49.5 20.5q173 69 359 72q19 1 37 1q72 0 129 -13q82 -15 129 -54q71 -52 80 -133q1 -9 1 -20q0 -62 -40 -158q-24 -60 -150 -338l4 -4q1 -2 5.5 -5.5t5.5 -4.5l2 -2q1 0 2 -1t2 -1q15 -11 22 -13l6 -2 q1 0 2.5 -1t2.5 -1q2 -1 6 -2t6 -2q5 -1 14 -4t14 -4q5 0 25 -2t37 -3.5t20 -0.5q27 0 79.5 1t76.5 1q14 0 77 2.5t95 3.5q398 9 793 27q12 0 22 -10t10 -25q0 -14 -9.5 -23.5t-22.5 -9.5q-46 -2 -139.5 -6t-139.5 -6q-327 -12 -790 -23q-103 0 -150 8q-79 14 -127 64 q-2 4 -9 13.5t-11 17.5t-4 16q0 4 2 9.5t5.5 12t4.5 9.5q2 3 5 10t5 10q7 16 21.5 46.5t19.5 41.5q46 107 78 176q3 8 33 82q5 13 14 45q1 4 3 11.5t3 11.5v8v8v23v10v2v4q0 7 -4 19q-2 2 -2 6l-2 4q-6 12 -16 22q-1 1 -8.5 9t-13 13.5t-9.5 6.5q-5 5 -15 8q-8 4 -14 6 q-1 1 -2 2.5t-2 2.5q-4 0 -4 2q-38 13 -66 18q-3 1 -9 2t-9 2h-6q-1 0 -2 1t-2 1q-6 0 -18 1t-17 1q-31 2 -90 2q-3 0 -90 -6q-4 -2 -13 -2l-8 -2q-3 0 -9.5 -1t-10.5 -1q-6 -1 -18.5 -4t-18.5 -4q4 -18 8 -27q93 -403 152 -751q24 -134 59 -383q2 -16 5 -47.5t5 -47.5 q1 -8 3 -24.5t3 -24.5q4 -24 4 -35q-4 -44 -16 -69q-14 -17 -29 -25q-10 -7 -28 -7q-7 0 -15 1q-13 1 -20 14.5t-4 26.5q5 15 21 19t18 10q0 1 1 5t1 5q2 6 2 18t-1 25.5t-1 15.5q-8 62 -12 95q-2 17 -6.5 44.5t-6.5 41.5q-9 73 -30.5 210t-24.5 156q-64 369 -156 737 q-40 -9 -110 -39q-11 -2 -19 -8q-9 0 -18 -6q-30 -15 -33 -18q-7 -2 -18 -13q-1 0 -3.5 -1t-3.5 -1l-4 -4q-3 -1 -5 -3t-4 -5t-3 -4l-4 -4l-4 -6q-2 -2 -6 -10l-2 -5q-1 -2 -2 -5t-2 -5v-4v-4v-8v-6q-4 -6 15 -24l5 -3q12 -7 15 -21t-5 -26q-6 -13 -19.5 -16.5t-25.5 2.5 q-43 22 -52 76z" />
<glyph unicode="S" horiz-adv-x="1542" d="M180 1149q9 81 70 149q44 49 123 93q72 38 148.5 61.5t157.5 30.5q20 2 40 2q60 0 120 -16q79 -21 142 -72q10 -9 9.5 -25t-9.5 -24q-22 -22 -51 0l-4 4q-1 0 -3 1t-3 1q-2 1 -6.5 4t-6.5 4q-8 6 -24 14q-4 2 -11 5l-6 3l-6 2l-2 3q-5 1 -14.5 4t-14.5 4q-24 8 -36 10 q-3 0 -8.5 1t-8.5 1h-4q-2 0 -5 1t-5 1q-18 2 -36 1.5t-38 -1.5q-14 0 -22 -2h-9l-6 -2q-15 0 -35 -4q-25 -5 -77 -21q-83 -29 -86 -30q-12 -4 -17 -9q-14 -5 -33 -16q-33 -17 -61 -39q0 -2 -2 -4t-4 -2l-6 -6q-2 -2 -7.5 -6t-7.5 -6q-17 -17 -32 -37q-1 -2 -4.5 -7.5 t-4.5 -7.5t-4 -7t-4 -7q0 -1 -1 -3t-1 -3l-2 -4q-7 -21 -10 -39l-2 -6v-6v-17v-22h2v-2v-9q2 -6 5 -17t5 -17q1 -1 2 -4.5t2 -4.5q0 -1 1 -3t1 -3q1 -3 4 -8t4 -8q9 -15 21 -33q2 -2 6 -10l4 -4l10 -10q5 -5 14 -15t13 -14l31 -31q2 -2 7 -6t7 -6q1 -1 4 -3t4 -3 q45 -35 152 -94q93 -48 328 -152q19 -9 77 -34.5t88 -39.5q88 -41 154 -86q85 -61 111 -119q14 -33 14 -67q0 -11 -2 -23q0 -6 -2.5 -10.5t-4.5 -8t-7.5 -7t-8 -5t-9.5 -5.5t-9 -5q-5 -3 -35 -18q-128 -64 -325 -104q-37 -8 -154 -29.5t-182 -36.5q-58 -13 -82 -20 q-5 -1 -21.5 -6.5t-21.5 -6t-21 -2.5q-6 -1 -10 -1q-8 0 -12 3q-40 16 -40 41q0 3 1 6q9 62 55 87q33 17 49 1q6 -6 6 -16q0 -17 -20 -43q8 4 24 8q77 20 136 31q40 8 156 29t180 36q57 11 161 46q7 4 21 8q4 4 8 4l6 2q6 3 17.5 8t17.5 8q2 1 11.5 5.5t16 7.5t14 8t11.5 10 t4 10v2q-2 4 -2 13l-4 8q-1 2 -2 5t-2 5t-7 11t-12.5 17t-7.5 7l-18 18l-37 29q-89 58 -209 113q-34 15 -151 65.5t-181 79.5q-205 95 -301 184q-137 123 -137 254q0 16 2 31z" />
<glyph unicode="T" horiz-adv-x="1939" d="M203 1276q-2 5 -2 10q0 6 4 14q7 14 20 15q180 30 678 102q15 2 42 7.5t42 7.5q12 20 33 20q15 0 29 -14q557 83 624 92q5 1 9 1q10 -1 18 -5q12 -6 16 -19q1 -5 1 -9q0 -9 -4 -19q-6 -14 -19 -15q-131 -18 -631 -92v-12q2 0 2 -4v-4v-11q0 -5 1 -12.5t1 -11.5 q1 -6 3 -19.5t3 -19.5q12 -59 17 -86q4 -25 9.5 -54t12.5 -62.5t10 -51.5q49 -184 101 -338q7 -17 27.5 -75t33.5 -91q5 -13 10.5 -25t12 -25.5t10.5 -23.5q6 -15 17.5 -41t15.5 -36q77 -165 161 -312q7 -14 4 -27.5t-14 -19.5q-8 -4 -16 -4q-5 0 -9 1q-14 4 -22 16 q-19 27 -37 63q-166 299 -280 645q-99 299 -144 631q-330 -51 -749 -113q-14 -2 -26 5.5t-15 21.5z" />
<glyph unicode="U" horiz-adv-x="3090" d="M168 1170q4 14 16 22q23 13 62.5 35.5t48.5 27.5q19 9 37 -0.5t18 -29.5q0 -33 4 -103q0 -29 8 -69q0 -3 1.5 -11t1.5 -12q22 -101 51 -188q7 -21 16 -39q1 -1 2 -4.5t2 -5.5l2 -5q1 -3 3 -8t3 -8q13 -30 35 -72q59 -103 84 -139q18 -23 25 -33l4 -4l4 -4q1 -2 6.5 -7.5 t7.5 -10.5q7 -8 24.5 -28.5t27.5 -31.5q59 -62 116 -108q13 -13 19 -17q4 -4 6 -4l4 -4q14 -8 31 -22q7 -4 30 -20t37 -23q73 -46 142 -74l6 -2q2 -1 5 -2t5 -2q6 -3 18 -6q7 -2 19.5 -8t15.5 -7q67 -20 76 -22q54 -11 80 -15q12 -4 20 -4q2 0 5.5 -1t5.5 -1h4q7 -1 18.5 -2 t17.5 -2q71 -5 118 -5q23 0 40 1q13 1 39.5 3t40.5 3q6 2 18 2l5 2h12l35 7q76 14 155 36q8 3 34.5 13t39.5 16q5 1 12 4t9 4h2v2q3 0 6.5 1t5.5 1q5 3 16.5 8.5t16.5 8.5q66 31 139 78q12 7 33 21.5t32 21.5q4 7 11 10l4 4q2 1 6 4t6 4q1 1 12.5 10.5t18.5 14.5 q68 61 112 110q18 22 25 33q2 2 6 7t6 7v2h2q3 6 6 9q27 34 46 65q8 13 22.5 16.5t28.5 -4.5q12 -8 15.5 -22.5t-3.5 -26.5q-120 -194 -322 -331q-272 -188 -606 -216q-52 -4 -102 -4q-279 0 -524 131q-143 77 -263 193.5t-206 257.5q-162 271 -174 561q-8 -5 -17.5 -10.5 t-21 -11.5t-17.5 -9q-12 -7 -27.5 -3t-23.5 16q-5 9 -5 19q0 5 1 10zM2290 1387q-1 10 -1 19q0 93 74 122q6 2 12 2q9 0 17 -5q14 -9 16 -24q4 -15 -1.5 -25t-18 -17.5t-14.5 -10.5l-2 -2q0 -1 -1 -3t-1 -3l-3 -2q0 -3 -4 -15v-4v-4v-14v-21v-6q2 -2 2 -4q1 -5 3.5 -15.5 t3.5 -15.5q9 -33 26.5 -98t26.5 -98q59 -191 123 -381q50 -146 143 -377q5 -13 16.5 -40.5t18.5 -45.5q18 -33 41 -92q5 -10 20 -45q3 -4 7 -12.5t6 -10.5q14 -18 45 -8q25 7 31 -12q2 -7 1 -13q0 -11 -6 -20q-20 -37 -64 -37h-7q-40 3 -62 49q-5 7 -22 41q-2 5 -19 45 q-6 16 -20.5 47t-20.5 48q-33 74 -78 188q-87 221 -137 377q-63 187 -114 385q-34 112 -37 158z" />
<glyph unicode="V" horiz-adv-x="1341" d="M160 1384q-4 10 -4 19q0 18 14 35q16 22 53 14q29 -6 37 -41q7 -25 27.5 -98t31.5 -111q23 -80 66.5 -229.5t52.5 -181.5q14 -44 60 -189.5t73 -222.5q3 -10 9 -28t11.5 -33t10.5 -29q3 -5 8 -19l4 -8q0 -2 4 -10q2 -6 10 -20.5t11 -20.5q4 -8 45 -78q2 -3 7 -9t7 -9 l2 -6q1 -1 3.5 -4.5t3.5 -4.5q4 -4 20 -16q2 0 5 1t5 1q1 0 2 1t2 1t2 1t2 1q1 1 4.5 2t5.5 2t3 2q11 6 20 19q2 2 7.5 6t7.5 6l6 10q21 27 39 62q2 6 8 18q2 2 3.5 5.5t2.5 4.5v2q2 6 7 18.5t7 18.5q62 160 101 371q3 19 10 53.5t10 52.5q10 59 12 99q19 138 23 221 q10 147 10 306q0 68 -2 138q-1 14 11 25.5t26 11.5q18 0 29.5 -10.5t13.5 -26.5q2 -66 2 -130q0 -314 -41 -591q-32 -227 -86 -415q-53 -153 -70 -195q-49 -96 -106 -141q-37 -26 -72 -31q-4 0 -13.5 -1t-14.5 -1q-17 0 -35 21q-20 20 -27 32q-52 60 -96 160 q-16 36 -31 73.5t-30.5 83.5t-24 72t-26.5 84.5t-23 75.5q-81 266 -127 426q-34 102 -62 209q-14 48 -28 107q-29 9 -39 38z" />
<glyph unicode="W" horiz-adv-x="2623" d="M195 1501q0 17 10.5 28t27.5 11q15 0 26 -11t11 -28q0 -171 27 -389v-12q0 -2 1 -5t1 -5q1 -4 2 -12.5t2 -12.5q5 -40 6 -47q8 -46 21 -98q15 -84 47 -195q30 -109 59 -193q14 -34 39 -96.5t33 -83.5q57 -116 80 -151q2 -3 6 -8.5t6 -8.5q1 -1 16.5 -20.5t16.5 -20.5 q27 -27 31 -28q2 0 6 -4q3 -1 8 -4.5t8 -4.5q8 -5 16 -8l3 -2q2 0 4.5 -1t3.5 -1q12 -4 16 -4l10 -2q10 -1 16.5 -1.5t8.5 1.5h8h1h5q22 4 33 8q5 0 8 2q1 1 3 2t3 2q14 7 17 8q3 2 8 5.5t8 5.5q1 1 3 2q3 1 3 2q1 0 3 2t3 2q31 25 56 63h2q0 1 1 2.5t1 2.5q1 1 3 4t3 4 q10 10 12 16q3 3 11 16t14 19q3 7 19.5 37.5t23.5 48.5q32 76 33 80q24 74 28 90q13 64 21 94q0 4 1 11.5t1 11.5l2 6v10q4 32 4 47v2q-5 72 -5 136q0 27 1 53q2 14 12.5 25t24.5 11q16 0 26.5 -10.5t12.5 -25.5q7 -52 7 -112q0 -38 -3 -79q2 -8 2 -26q4 -20 4 -35 q0 -2 2 -4v-5q0 -3 1 -8.5t1 -7.5q21 -102 33 -143q13 -44 22 -66l4 -6q0 -2 1 -3.5t1 -2.5l7 -14q9 -22 16 -29q10 -25 35 -57q3 -8 10 -15q0 -2 2 -4l2 -2q9 -15 18 -24q20 -23 72 -62q4 -2 13.5 -7t13.5 -7q6 -6 29 -16.5t26 -8.5q21 -11 45 -14q4 -1 12 -2t11 -2h2h2 q2 0 5.5 -1t4.5 -1q20 -1 38 -1q30 0 56 3h1h7q6 2 11 2q4 1 12 2t12 2q7 1 23 6t18 6q29 7 47 15q1 0 9.5 3.5t13.5 4.5l6 4q1 0 3.5 1t4.5 1q23 10 78 41q23 14 59 39q1 1 4.5 4t4.5 4q2 0 6 2q3 7 10 10q16 12 27 23q69 64 98 104l6 6l2 4q2 2 5 6.5t5 6.5q11 15 19 28 q8 10 39 62q29 57 32 65q1 3 4.5 8.5t4.5 8.5q0 1 1 3.5t1 4.5q0 1 1 2t1 2q2 5 6 14.5t6 14.5q38 126 41 139q1 7 3 19.5t3 19.5q2 6 2 16q2 2 2 6v4q4 40 6 74q1 19 1 39q0 47 -5 100q0 1 -1.5 9t-2.5 15t0 7q-5 30 -6 37q-8 28 -18 68q-3 13 -25 67q0 1 -1 4t-1 4l-2 2 q-1 4 -6 19q-2 5 -7.5 15.5t-7.5 15.5q-7 14 -3 28.5t16 22.5t29 4.5t24 -16.5q86 -177 92 -361q1 -25 1 -50q0 -276 -152 -515q-84 -130 -195 -217q-152 -119 -313 -154q-53 -12 -108 -12q-34 1 -70 5q-92 12 -166 58q-118 69 -185 203q-36 68 -63 164q-3 -9 -15 -51 q-30 -92 -77 -178q-51 -89 -105 -146q-77 -74 -149 -84q-19 -3 -37 -3q-70 0 -127 40q-64 44 -106.5 111t-86.5 166q-94 221 -137 383q-108 377 -108 796z" />
<glyph unicode="X" horiz-adv-x="2222" d="M242 1482q4 16 16 23q30 16 51 -12q90 -128 197 -256q108 -129 219 -246q92 -95 225 -217q157 152 398 361q93 77 299 235q90 74 147 107q86 52 160 52q10 0 20 -1q16 -2 26.5 -12t10.5 -27q0 -14 -11 -25t-26 -10h-43q-4 -2 -6 -2q-1 0 -4.5 -1t-5.5 -1q-3 -1 -10.5 -3 t-10.5 -3l-18 -6l-6 -2q-4 -4 -8 -4q-32 -18 -39 -23q-53 -34 -148 -106q-108 -84 -139 -111q-27 -21 -141 -115q-196 -164 -387 -352q89 -79 104 -90q14 -10 66 -55q10 -5 20 -15q4 -2 8 -6q6 0 20 -13.5t17 -13.5q277 -210 561 -360l4 4q10 6 23 23l2 2v2q4 0 4 4 q4 4 8 12q10 17 15 29l10 22q1 5 4 15.5t4 15.5q1 2 2 13.5t2 13.5v28q0 15 11 26t28 11q15 0 25 -11t10 -26v-9q0 -73 -32 -137q-34 -68 -95 -114q-17 -13 -39 0q-271 140 -561 357q-139 103 -275 221q-91 -91 -108 -109q-132 -135 -258 -276q-25 -28 -69.5 -79.5 t-53.5 -62.5q-10 -12 -28 -33t-25 -30q26 -13 20 -45q-5 -16 -17.5 -26.5t-29.5 -10.5q-33 0 -53 27q-9 15 -9 32q0 32 33 70q7 9 62 72q18 23 123 143q158 176 256 277l100 100q-119 110 -199 190q-237 243 -452 541q-6 8 -6 18q0 4 2 10z" />
<glyph unicode="Y" horiz-adv-x="1595" d="M168 1231q4 18 21 27t36 4q10 -5 37 -23q153 -105 346 -215q88 -50 180 -96l47 -23.5t46 -23.5l8 -4h4l2 -3q6 10 19 15t24 2q16 -3 23 -17t4 -30q-3 -22 -23 -34.5t-45 -10.5q-27 2 -90 32q-18 8 -49 25.5t-41 22.5q-138 73 -180 96q-30 17 -88 51.5t-87 52.5 q-15 10 -43 29t-43 29q-6 3 -20 13.5t-23 14.5q-2 1 -5 4t-5.5 4.5t-5.5 2.5q-19 0 -27 4q-14 9 -20 24q-4 8 -4 16q0 6 2 11zM304 128q-1 7 -1 12q0 10 4 18q17 26 53 12h2h3q1 -1 3 -2t3 -2q2 -1 6 -2t7 -2t5 -2q4 -1 16.5 -6.5t18.5 -6.5q42 -14 70 -18q47 -12 69 -14 l6 -2h4q4 0 11 -1t10 -1q10 -2 33 -2q26 -2 55 -2q42 0 90 4q4 0 11 1t10 1h2h2q2 2 6 2q7 1 18 4t15 4q48 8 69 14q40 10 90 31q1 0 3 1t3 1h3q4 4 10 4q6 4 18 8q35 20 37 21q3 2 10.5 6t10.5 6l8 8l14 13q14 12 18 18l6 7l-1 -1q4 4 4 8q10 10 12 19q4 4 4 8l2 6 q4 7 8 21q1 4 2 12t2 12q0 2 1 6t1 6l3 7q0 7 1 21.5t1 21.5q3 18 8 100q1 22 1 52q0 59 -3 149q-1 23 -4 98t-4 104t-2 97v42q0 38 1 62q2 37 6 97t11.5 103t20 94.5t28.5 98.5q11 28 37 28q5 0 10 -1q14 -5 22 -20q5 -9 5 -17q0 -6 -2 -12q-28 -89 -41 -158 q-7 -35 -10 -78q-6 -37 -9 -82q-3 -40 -3 -110q0 -89 5 -226q5 -163 5 -269q0 -83 -3 -132q-3 -45 -5.5 -69t-13 -61.5t-28.5 -64.5q-44 -70 -137 -116q-177 -83 -374 -87h-17q-188 0 -358 74q-14 6 -18 24z" />
<glyph unicode="Z" horiz-adv-x="2254" d="M180 1227q-11 15 -11 29t11 26q199 184 463 225q52 9 94 11q16 1 34 0q28 0 59 -2q51 -4 92 -25t67 -59q34 -48 34 -112q0 -90 -69 -210q-53 -91 -106 -176q-18 -31 -57 -93.5t-58 -92.5q-93 -152 -110 -183q-4 -5 -19 -30q86 -10 96 -11q37 -7 37 -41q0 -15 -11.5 -27.5 t-25.5 -9.5q-80 8 -127 17q-3 -15 -6 -27q0 -4 -2 -8v-8v-21v-16v-2q4 -12 4 -21q4 -12 6 -16q0 -2 3 -2v-2l1 -3q1 -3 1 -7q4 -7 14 -20.5t10 -14.5q0 -2 2 -2l4 -8q2 -2 8.5 -6.5t8.5 -6.5q2 -4 14 -16l6 -6l6 -2q22 -17 33 -23q66 -30 84 -35q51 -14 197 -36 q108 -18 207 -29q366 -43 796 -43q-6 2 -10 6l-6 6q-12 9 -27 15q-12 7 -16 24t4 29q7 15 22.5 18.5t30.5 -4.5q75 -38 105 -123q2 -6 2 -11q-1 -12 -9 -22q-12 -16 -30 -16h-68q-249 0 -516 19q-216 15 -434 45q-130 19 -203 32q-119 27 -184 70q-82 52 -119 127 q-24 51 -24 105q0 35 10 71q-27 7 -27 35q0 16 11 28t26 11q6 -2 16 -2q14 29 72 125l57 93t58 93q19 30 56.5 93t57.5 93q64 102 93 162q0 6 2 6v2q1 1 2 4.5t2 4.5q4 12 6 20q3 5 12 37q0 3 1 8t1 8v9q2 2 2 8v30q-2 7 -2 9q0 1 -1 3t-1 3q-1 2 -2 7t-2 7l-2 4 q-2 2 -3.5 4.5t-2.5 3.5t-2 3.5t-2 3.5q0 4 -4 4q-4 11 -13 14l-4 4q0 1 -6 4l-16 8l-2 2h-2q-1 0 -5 2.5t-6 2.5q-23 8 -39 10h-6h-10q-8 2 -20 2q-60 0 -91 -2q-16 -4 -28 -4q-6 0 -10 -2q-20 -2 -46 -9q-17 -4 -83 -22q-15 -4 -46 -17l-18 -6l-4 -2l-12 -4 q-64 -33 -78 -43q-8 -4 -78 -49l-6 -6q-4 -4 -8 -4q-2 -4 -5 -7t-7 -6t-5 -4q-5 -4 -15.5 -13.5t-16.5 -14.5q-11 -9 -27.5 -9.5t-28.5 9.5z" />
<glyph unicode="[" horiz-adv-x="487" d="M57 993q0 82 2 121q11 218 19 324q15 22 192 16q18 0 31.5 -13t13.5 -28q-2 -21 -15.5 -33.5t-31.5 -9.5q-71 0 -106 2l-17 -223v-57v-119q-2 -39 -2 -113q6 -231 33 -475q10 -102 27 -231q72 4 106 8q18 3 32 -9.5t17 -33.5q0 -15 -12 -28.5t-29 -14.5q-178 -12 -194 6 q-68 535 -66 911z" />
<glyph unicode="\" horiz-adv-x="901" d="M49 911q4 13 14 19q6 8 18.5 8t22.5 -6l43 -27q17 -14 20.5 -24.5t0 -14t-13.5 -10.5q8 -14 14 -22l74 -97l63 -78q11 -18 55 -69q123 -140 269 -283q39 -39 112 -107t86 -81q12 -9 13 -25t-9 -28q-9 -9 -25 -9t-26 9q-172 161 -301 293t-241 270q-47 54 -109 141 q-4 6 -14.5 17.5t-14.5 17.5q-5 8 -22 37.5t-27 46.5q-6 9 -2 22z" />
<glyph unicode="]" horiz-adv-x="415" d="M43 129q2 20 16 33t33 10q35 -4 105 -8q22 168 28 231q24 246 33 475q0 74 -2 113l-2 119v57q-8 149 -14 223q-35 -2 -107 -2q-18 -3 -31.5 9.5t-15.5 33.5q0 15 13 28t30 13q178 6 193 -16q4 -47 9 -128t8 -138l3 -58q2 -39 2 -120q3 -387 -68 -912q-14 -18 -192 -6 q-17 1 -30 14.5t-11 28.5z" />
<glyph unicode="^" horiz-adv-x="903" d="M35 1047q-4 39 31 104q26 42 65 84l45 57q47 61 74 92q133 148 215 228q-1 0 1 1.5t5.5 4t7 5.5t7.5 6.5t6 6.5q2 -2 14 -13l18 -17q75 -89 125 -162q118 -161 201 -332q1 -10 -5 -16t-14 -6q-17 -3 -26 16q-78 158 -203 332q0 2 -7 10t-7 10l-4 6q-7 7 -9 13 q-18 18 -30 39q-7 9 -25.5 30.5t-25.5 30.5q-105 -99 -211 -221q-1 -2 -28.5 -33.5t-41.5 -48.5l-10 -10q1 0 -5 -8.5t-14 -19t-14 -17.5q-56 -71 -66 -86l-12 -23q-2 -2 -2 -4l-6 -14l-4 -13v-6l-2 -2v-27q0 -8 -7 -14t-16 -6t-14.5 7t-5.5 16z" />
<glyph unicode="_" horiz-adv-x="1538" d="M27 72q0 15 10 26t24 11q295 -6 582 -9q408 -6 817 -6q14 0 24.5 -11t10.5 -24q0 -15 -10.5 -25.5t-24.5 -10.5q-98 0 -293 1t-293 1l-813 12q-14 0 -24 10t-10 25z" />
<glyph unicode="a" horiz-adv-x="1077" d="M106 376q0 32 23 87q7 22 37 65q48 61 123 111q149 93 337 102q21 1 42 1q165 0 307 -64q13 -6 17 -22q1 -5 1 -9q0 -10 -6 -18q-15 -28 -49 -13q-1 0 -3 1t-3 1l-10 5q-3 2 -11.5 5t-11.5 5q-8 2 -23.5 7t-23.5 7q-57 15 -90 19h-10q-4 2 -11 2q-4 0 -12 1t-12 1 q-7 0 -22.5 1t-22.5 1q-46 0 -92 -6l-11 -2q-6 0 -10 -2q-4 0 -10.5 -1.5t-9.5 -1.5q-6 -2 -20.5 -5t-20.5 -5q-54 -15 -84 -26l-8 -5q-1 -1 -4.5 -2t-4.5 -2q-12 -4 -18 -8q-19 -8 -33 -16q-2 -1 -35 -23q-8 -4 -14 -10q-2 0 -6 -4l-4 -2q-31 -25 -56 -53q0 -1 -1.5 -3 t-2.5 -4t0 -2l-4 -4q-9 -14 -10 -16q-3 -5 -9 -15.5t-9 -15.5q0 -1 -1 -5q-2 -4 -1 -3q-1 -1 -2.5 -3t-2.5 -3q0 -4 -4 -16t-4 -19l-2 -8v-10l2 -8v-1v-2h2q0 -3 11 -14l4 -4q2 -1 6 -4t6 -4h4l2 -2q1 0 3.5 -1t4.5 -1q1 0 4 -1t4 -1h2h3h22q-2 -1 6 0q4 2 12 2q18 3 89 28 q7 3 21.5 8.5t21.5 8.5l2 2h2q8 4 10 4q6 4 18 8q14 6 40.5 19.5t39.5 19.5q92 52 148 94q23 15 37 27l2 2h2q1 1 4 3t4 3q10 10 16 14q37 29 66 58q12 12 30 10.5t27 -16.5q9 -17 14.5 -34.5t6.5 -40t0 -35.5t-2.5 -40.5t-2.5 -36.5q0 -65 2 -98q2 -37 15 -92 q3 -14 -4.5 -27t-20.5 -16q-5 -2 -11 -2l-17 5q-14 8 -17 21q-18 87 -18 176v25q0 3 3 37.5t3 52.5v21q-184 -154 -387 -236q-80 -29 -84 -31q-52 -17 -87 -17q-7 0 -13 1q-51 5 -89 35q-41 33 -41 85z" />
<glyph unicode="b" horiz-adv-x="1032" d="M123 524q-8 165 -8 328q0 232 16 459q7 32 39 32q13 0 23.5 -9.5t7.5 -22.5q-12 -158 -15 -316q-2 -74 -2 -153q0 -131 6 -275q68 104 177 148q71 26 142 26l136 -24q139 -49 225 -168q22 -36 31 -57q16 -34 16 -59q0 -26 -18 -42q-6 -10 -14.5 -16.5t-23.5 -12.5 t-20 -7.5t-24 -6.5q-43 -14 -90 -26q-148 -44 -320 -44q-24 0 -49 1q-15 0 -27 11.5t-12 26.5q0 13 12 23t27 10q30 -1 57 -1q64 0 115 5q66 8 162 31q41 9 84 25q31 9 43 14q3 1 9.5 3t9.5 3l4 2q12 0 4 17q2 -1 0 4q-6 6 -6 14q-13 26 -35 51l-2 6q-2 2 -2 4 q-3 1 -8.5 5.5t-6.5 5.5q-4 10 -20 26q-11 11 -27 23l-4 2l-4 2q-5 7 -14 10q-47 32 -55 35q-2 1 -6.5 2t-6.5 2l-4 2q-4 4 -10 4q-28 8 -33 10q-18 7 -35 7q-4 4 -14 4h-2h-8q-27 3 -48 3q-10 0 -18 -1q-8 0 -10 -2h-6h-10q-5 -2 -16 -4.5t-15 -4.5q-22 -4 -37 -12 q-1 0 -2 -1t-2 -1q-9 -3 -14 -8q-20 -10 -29 -19q-8 -4 -12 -8l-5 -2q0 -1 -6 -4q-29 -29 -43 -47q-4 0 -4 -6q-4 -2 -4 -4q-2 -1 -5 -5l-3 -5q-1 -2 -21 -27q-5 -7 -14 -29q-4 -8 -4 -10l-2 -4l-4 -6q-9 -36 -10 -43q3 -97 16 -209q3 -25 -27 -32q-7 -2 -12 -2 q-19 0 -29 18q-17 48 -20 67q-8 36 -8.5 77t8.5 87q0 34 -4 100z" />
<glyph unicode="c" horiz-adv-x="983" d="M117 555q29 92 109 150.5t184 80.5q45 9 83 9q70 0 111 -31q40 -30 54 -76q5 -16 4 -31q0 -29 -17 -57q-25 -32 -53 -16q-14 9 -19 25.5t5 27.5q0 4 4 8l2 6v2v2v3v4q-1 2 -2 6.5t-2 5.5l-2 4l-5 10v2q-4 4 -8 4l-4 4q-2 2 -4 2q-1 1 -4 3.5t-4 3.5l-6 2q-4 1 -11 2 t-10 2h-8q-1 0 -4 1t-4 1q-17 0 -23 -2h-24l-6 -2q-9 0 -13 -2q-21 -3 -45 -9q-34 -10 -45 -16q-2 0 -5 -1t-5 -1l-2 -2h-2q-2 -2 -9 -5.5t-12 -6.5q-26 -11 -41 -23q-3 -2 -5 -3t-3 1q-2 -4 -6 -8q-11 -7 -16 -17q-12 -12 -15 -18q-4 -8 -8 -10q-11 -12 -20 -37h-2 q0 -4 -2 -8q0 -1 -1 -4t-1 -4l-7 -21v-10h-2v-2v-21v-16l2 -6q0 -2 1 -8t1 -9q5 -10 7 -16q0 1 2 -4q0 -2 1 -4.5t1 -3.5q4 -7 12 -19.5t8 -13.5l6 -4l4 -8q8 -12 13 -17q14 -14 18 -16l6 -6l6 -2q13 -13 31 -25q90 -44 168 -59q16 -4 27 -4q2 -2 10 -2l6 -2q7 0 22 -1 t21 -1q20 -1 38 -1q31 0 58 3h15q1 0 2 1t2 1h2q4 0 11.5 1t12.5 1q6 2 22 5t23 5t23.5 6t22.5 6q2 1 5.5 3t6.5 4t6 5q2 0 5.5 1.5t4.5 1.5l8 2q13 5 30 1t24 -18q5 -6 5 -16q0 -5 -2 -12q-4 -18 -18 -25q-127 -50 -235 -55q-19 -1 -38 -1q-188 0 -333 91q-92 62 -123 125 q-30 55 -30 114q0 34 10 70z" />
<glyph unicode="d" horiz-adv-x="1390" d="M113 309q-12 42 -12.5 85.5t12.5 88.5q21 74 82 156q62 79 120 129q73 62 155 90q42 14 83 14q40 0 78 -14h2q-1 3 -2 11t-2 12q-3 27 -3 52q0 48 11 93q20 71 64.5 127t109.5 80q39 14 79 14q41 0 84 -15q84 -29 142 -95q64 -73 86 -156q16 -53 16 -109q0 -35 -6 -71 q-24 -156 -159 -320q-7 -7 -9 -8q18 -16 46 -33q84 -61 159 -106q12 -8 16 -22q1 -5 1 -11q0 -9 -4 -16q-8 -12 -23 -17t-27 2q-105 67 -215 150q-92 -98 -192 -158q-153 -97 -301 -125q-56 -9 -105 -9q-114 0 -188 50q-74 49 -98 131zM172 373q2 -2 2 -8v-7q2 -14 10 -41 l3 -5l-1 1l4 -8q1 -2 5.5 -8t5.5 -8t3 -5t3 -5q2 -5 4 -5q2 -4 8 -10l12 -12q1 -1 3.5 -2t3.5 -2l2 -2q11 -9 28 -19q6 -3 15 -6l2 -2q1 0 3.5 -1t4.5 -1q18 -7 35 -10q2 -1 7.5 -2t8.5 -2h8h2q19 -3 43 -3q14 0 29 1q25 0 37 2h2q4 2 10 2q2 1 8 2t9 2q38 6 75 18 q6 2 19.5 7.5t19.5 7.5q3 1 9.5 3t9.5 3q4 4 8 4q1 0 3 1t3 1q87 41 141 78q20 10 35 22q3 2 8 6.5t8 6.5q1 1 3.5 2t3.5 2l4 4q18 13 63 53l35 35q-4 4 -10 9t-13.5 11t-11.5 9q-82 67 -125 112q-16 -27 -41 -18q-13 3 -21 16t-5 27q1 3 3 8t3 8v8v9v10v2q-2 2 -2 8 q-23 30 -31 47q-2 4 -6 11.5t-6 11.5q-2 1 -5 4t-5 4l-2 2q-3 0 -3 2q-2 0 -6 4q-12 8 -18 10q-2 1 -5 3t-5 3l-7 2q-23 9 -34 11l-10 2h1h-6h-20h-14q0 -2 -7 -2q-2 0 -7 -1t-7 -1q-29 -8 -37 -13q-2 0 -5.5 -1t-4.5 -1l-6 -4q-14 -5 -19 -8q-28 -17 -32 -20 q-3 -2 -9.5 -6.5t-9.5 -6.5q-4 -2 -8 -6q-2 0 -2 -2h-2q-20 -16 -31 -27q-31 -28 -59 -59q-39 -44 -49 -63q-33 -48 -43 -74q-2 -2 -2 -4q-2 -2 -2 -4q-1 -1 -2.5 -5.5t-2.5 -5.5l-6 -18q-8 -24 -8 -39v-6q-2 -4 -2 -10v-21v-18zM696 924q0 -13 2 -19v-8q4 -21 9 -33 q3 -20 12 -41l4 -8v-2v-2q4 -4 8 -16l2 -2q34 -34 49 -78q0 -2 4 -6q0 -1 2.5 -3.5t2.5 -3.5l6 -6l24 -30q54 -57 123 -113q13 -13 45 -37q12 15 27 33v2l4 4q4 4 6 8q2 2 12 17q1 2 10 14.5t13 19.5q27 43 43 78q1 2 3 6.5t3 6.5q0 1 1 2t1 2q3 13 8 20l13 39q7 25 10 45v8 l2 6q0 13 2 21v45q-2 6 -2 20v2v3q-2 2 -2 8q-2 7 -5 21.5t-5 21.5q-3 9 -9 18q0 2 -1 5.5t-1 4.5l-2 2v2q-23 48 -43 70q-4 8 -6 8q-4 4 -6 8q-6 6 -12 15q-9 6 -15 12q-4 2 -8 6l-4 4q-33 22 -35 23q-3 1 -8 4t-8 4q-1 1 -3 2t-3 2l-6 2q-29 8 -41 10q-3 3 -7 3h-6 q-6 2 -20 2q-15 0 -23 -2h-2q-2 0 -8 -3q-24 -6 -29 -8h-2v-2q-1 0 -4 -1t-4 -1q-8 -4 -12 -8q-8 -4 -12 -8q-1 0 -2.5 -1t-2.5 -1l-2 -2q-4 -3 -24 -23q-4 -4 -10 -12q-1 -1 -2 -3t-2 -3q-3 -5 -9.5 -14.5t-9.5 -14.5q-4 -8 -6 -14l-4 -8q-14 -35 -19 -64l-2 -10 q0 -13 -2 -17v-32z" />
<glyph unicode="e" horiz-adv-x="854" d="M116 435q-3 22 -2 43q0 62 23 118q33 80 105 145q79 75 153 93q28 6 53 6q62 0 109 -37q35 -27 53 -67q12 -29 13 -59q0 -12 -2 -24q-1 -1 -2.5 -4t-2.5 -4q87 30 105 35q13 4 26.5 -3.5t16.5 -21.5q1 -5 1 -10q-1 -9 -5 -17q-8 -12 -21 -18q-43 -12 -84 -26 q-7 -3 -22 -9t-19 -8q-12 -4 -20 -8l-6 -2q-2 -2 -4 -2q-83 -36 -154 -78q-30 -16 -76 -45q-6 -4 -18.5 -12t-18.5 -12q-9 -6 -16 -13q-4 -2 -8 -6h-2q-15 -12 -27 -27l-2 -2l-2 -2l-4 -8q-2 -2 -2 -4l-2 -6q-2 -2 -2 -10q-2 -4 -2 -8l2 -3l2 -10q1 -3 4 -4v-2q8 -8 8 -14 q6 -4 15 -13q4 -2 4 -4q1 0 3 -1t3 -1q11 -11 28 -18q3 -2 9.5 -5t9.5 -5q5 0 6 -2q1 0 3 -1t3 -1q22 -9 33 -11q12 -4 20 -4q2 -2 9 -2h2q8 -2 37 -2q12 0 20 2h8h2q26 4 35 8q13 4 26.5 -3t18.5 -21q3 -15 -4.5 -28t-22.5 -17q-54 -13 -77 -13h-9q-78 1 -148 35 q-74 36 -122 101q-50 66 -60 152zM186 481q0 -27 2 -43q0 -2 1 -5t1 -5q0 -3 5 -18q1 -2 2 -8t2 -9q13 23 30 37q33 29 74 53q22 16 78 49q93 56 194 97q-13 4 -20 17t-4 28v8v6v4q0 5 -4 13l-2 4q0 4 -4 8q0 4 -4 8q-2 2 -6.5 6t-6.5 6l-6 6h-2v2q-6 3 -12 9l-12 6l-7 2 q-1 0 -4 1t-4 1q-2 1 -7 2t-7 2h-10h-21h-2v-2h-10q-5 -2 -16.5 -5t-16.5 -5q-2 -2 -6 -2q-1 -1 -4 -3t-4 -3q-3 -1 -9.5 -4.5t-9.5 -4.5q-20 -12 -30 -22q-2 0 -2 -2q-6 -3 -9 -6q-3 -2 -16 -15q-2 -2 -12 -11t-15 -15q-5 -5 -14 -15.5t-14 -15.5l-2 -2v-2q-1 -2 -7 -8 q-9 -13 -10 -17q-11 -14 -16 -30l-2 -5q-1 -1 -2 -4t-2 -4q0 -6 -4 -14q-6 -18 -9 -39v-4q0 -6 -2 -8v-19z" />
<glyph unicode="f" horiz-adv-x="970" d="M104 297q-3 9 -3 17q0 13 7 25q11 20 31 30q22 12 74 24q95 23 121 27q17 201 86 352q43 87 92 139q67 70 139 86q20 4 41 4q27 0 56 -7q49 -12 87 -46.5t46 -83.5q1 -6 1 -12q0 -25 -26 -33q-13 -3 -27.5 5t-15.5 22q-4 12 -6 20q-4 6 -4 8q-1 1 -6 11l-4 4q-1 1 -4.5 4 t-4.5 4q-8 8 -8 6l-6 6l-12 6l-8 5q-3 1 -23 6q-4 2 -12 2q-2 2 -4 2h-2h-25q-8 1 -8 0q0 -2 -4 -2q-7 0 -15 -4q-3 -1 -8 -2t-8 -2l-4 -2q-2 -1 -3.5 -2t-2.5 -2t-2 -1q-7 -4 -19.5 -12t-13.5 -8l-4 -4l-6 -6q-6 -4 -15 -13q-10 -10 -26 -30q-2 0 -2 -2q-3 -6 -6 -9 q-1 -2 -4 -5t-4.5 -5.5t-2.5 -5.5q-21 -30 -41 -72q-2 -3 -5 -10t-5 -10q0 -2 -1 -4.5t-1 -3.5l-4 -6q-2 -6 -7 -19.5t-7 -19.5q-4 -14 -12.5 -41.5t-12.5 -40.5q-13 -61 -16 -84q0 -4 -1 -11.5t-1 -11.5l-2 -6v-10q-1 -5 -2 -15.5t-2 -15.5q129 19 253 19h33 q14 -2 24.5 -12.5t10.5 -24.5t-11 -25t-24 -10q-100 0 -149 -4q-42 -2 -137 -15h-5q-2 -49 -2 -140q0 -46 1 -102q1 -167 6 -239q8 -117 10 -178q1 -11 1 -20q0 -46 -16 -70q-16 -23 -42 -31q-9 -3 -17 -3l-35 11q-12 8 -15.5 22t3.5 28q8 16 42 15l5 -1l4 10q0 22 -4 72 q-1 26 -4 76.5t-4 74.5q-4 63 -6 225q-1 80 -1 139t1 97q-53 -11 -66 -14q-5 -1 -31 -8t-41 -11q-8 -4 -12 -4q-2 -2 -4 -2q0 -12 -8 -22t-19 -13q-13 -4 -25.5 3.5t-17.5 21.5z" />
<glyph unicode="g" horiz-adv-x="1054" d="M111 319q-9 29 -9 59q0 51 27 107q41 77 107 131q71 62 158 99.5t175 40.5h12q91 0 162 -43q78 -49 107 -127q6 -13 -2.5 -26.5t-22.5 -16.5q-14 -4 -26 3t-17 21l-4 6v2q-1 2 -3 5.5t-3 5.5q-2 3 -5 9t-5 9q-2 0 -4 2t-2 4l-8 8l-17 17l-6 4l-2 2q-2 2 -10 6 q-9 6 -21 12q-2 1 -5 3.5t-5 3.5h-2q-2 0 -4 2q-4 1 -11.5 3t-11.5 3q-29 8 -57 10q-39 0 -57 -2l-11 -2q-6 -2 -16 -2q-5 -1 -14.5 -4t-14.5 -4q-19 -4 -53 -17q-8 -4 -10 -4l-6 -4q-14 -5 -19 -8q-20 -10 -35 -19q-21 -12 -36 -24q-15 -10 -17 -12h-2l-2 -2q-1 -1 -4 -3.5 t-4 -3.5q-48 -43 -59 -59q-2 -1 -9 -8l-4 -6q-7 -7 -10 -13q-12 -18 -20 -34q-1 -1 -2.5 -5.5t-2.5 -5.5l-2 -2v-2l-6 -18q-4 -12 -4 -19q0 -1 -1 -3t-1 -3v-4v-22v-9v-2q1 -3 2 -9t2 -9q2 -2 2 -4l2 -6q1 -1 13 -19l6 -6l12 -12h2v-2q2 0 6 -4q3 -2 9.5 -5.5t9.5 -5.5l8 -4 h2q5 -2 16.5 -6t16.5 -6q8 0 20 -4h8l6 -2q5 0 16.5 -1t16.5 -1q9 -1 20 -1q23 0 58 3q8 0 12 2h2h2q3 0 9.5 1t9.5 1q7 1 19 4l16 4q28 6 75 25l9 4q1 0 3 1t3 1q3 1 8 4t8 4q28 14 33 17q39 24 63 43q7 4 9 6q1 1 3 2t3 2q2 2 7 6t7 6l27 27q5 5 14 15t14 15q2 4 11 13 l2 4q1 1 3 4t3 4q15 22 39.5 16t27.5 -34v-13q19 -253 21 -405q1 -51 1 -102t-1 -103q0 -103 -29 -160q-41 -78 -141 -98q-67 -15 -135 -15q-30 0 -60 3q-64 8 -98 16q-53 11 -84 31q-43 31 -43 73v5q7 58 53 69q14 3 27 -4t16 -20q5 -14 -2 -27.5t-20 -17.5h-2v-5l2 -2v-2 q0 -2 2 -2q4 -4 4 -6h2q8 -8 14 -8h2q2 -2 7 -2q44 -14 73 -21q32 -4 37 -4q6 -1 18.5 -2t18.5 -2q53 0 80 2q16 0 22 2h9q1 0 3 1t3 1q6 1 17.5 3.5t17.5 3.5q12 2 36 10q0 -1 7 2l2 2q3 1 8 4t8 4q1 1 3 2t3 2l4 4q7 7 10 13h2v2q1 0 5 4l6 12q3 2 4 6q0 1 1 3t1 3 q1 3 3 9.5t3 9.5q0 6 4 18v8q0 2 2 2q2 27 2 80q1 52 1 103t-1 102q-2 106 -14 317q-84 -85 -194.5 -133t-229.5 -49h-12q-36 0 -69 5q-40 6 -78.5 21t-68 44t-42.5 69z" />
<glyph unicode="h" horiz-adv-x="1191" d="M104 993q0 92 13 199q4 38 8 57q6 40 6 41q10 27 30 43q15 12 32 12q7 0 14 -2q15 -4 22 -17.5t4 -27.5q-6 -22 -32 -26q0 -1 -1 -4t-1 -4q-2 -6 -2 -17q-11 -71 -11 -78q-10 -92 -10 -168v-39q0 -160 21 -360q16 -148 45 -330q87 81 178 140q77 51 127 73q59 29 109 29 q23 0 44 -6q67 -23 138 -117q53 -75 84 -162q4 -14 11.5 -40.5t10.5 -36.5q1 2 4 -7q0 -1 1 -4t1 -4q2 -3 5.5 -8t5.5 -8l2 -4l4 -4q2 -1 4.5 -4t3.5 -3q4 -4 8 -6q2 0 6.5 -1t5.5 -1h6h7l8 2q1 0 3 1t3 1v2q2 0 2 2v5q3 14 17 21.5t28 4.5t21 -17q5 -9 5 -20q0 -4 -1 -8 q-6 -31 -34 -49q-25 -16 -53 -16h-6q-69 0 -106 63q-10 18 -18 39.5t-16 49t-13 42.5q-6 15 -10 27q-2 6 -8.5 17.5t-8.5 15.5q-13 26 -35 59q-2 2 -14 20l-2 2q-2 1 -2 3q-1 1 -3 4t-3 4q-4 5 -27 28q-14 14 -16 17q-2 0 -2 2h-2q-4 4 -8 6l-19 10q-2 0 -5 1t-5 1 q-2 1 -5.5 2t-4.5 2h-9h-18l-8 -2q-2 0 -5 -1t-5 -1q-12 -3 -21 -6l-20 -8q-11 -8 -21 -10q-6 -4 -18.5 -11.5t-18.5 -11.5q-158 -91 -282 -215q-13 -14 -35 -10t-25 24q-46 308 -57 404q-21 199 -21 360v39z" />
<glyph unicode="i" horiz-adv-x="444" d="M117 829q2 14 12.5 24.5t24.5 10.5t24.5 -11t9.5 -24q0 -157 29 -299q16 -76 39 -145q4 -12 11.5 -33.5t11.5 -32.5q17 14 34 9q13 -2 21 -16q5 -9 5 -18q0 -4 -1 -9q-10 -24 -27 -64q-10 -24 -32 -24q-23 0 -33 16q-129 289 -129 602v14zM133 1153q-1 14 11 26 q8 10 20 10q3 0 6 -1q5 0 15.5 -1t15.5 -1q18 -4 24 -12q13 -10 13 -25q0 -14 -11 -25q-10 -10 -24 -10h-2q-5 0 -15.5 1t-15.5 1q-19 4 -27 12q-10 10 -10 25z" />
<glyph unicode="j" horiz-adv-x="1038" d="M72 -209q-5 14 -5 28q0 32 25 66q21 27 70 49q8 2 26 11h2q1 2 3 2q4 0 8 4q3 1 6 2.5l6 3t4 2.5t3 2t3 2q4 4 6 4q11 9 25 9.5t25 -9.5q11 -9 11 -25t-11 -26q-12 -12 -46 -29q-16 -8 -26 -12q-4 0 -8 -4l-6 -2q-21 -8 -31 -16h-2q0 -1 -4 -5l-6 -6q-5 -5 -5 -6l-4 -4 l-2 -6v2v-4v-6v-2v-2l2 -2l2 -2v-3q3 -3 9 -6q0 -1 4 -4q5 -4 32 -22q62 -40 76 -47q55 -31 78 -41q18 -10 43 -21q2 -1 9 -4t12 -4l2 -2h2q1 -1 4.5 -2t5.5 -2q81 -34 170 -58q3 -1 36 -8.5t50 -9.5q17 -4 47 -8q2 -2 6 -2h2q3 0 8.5 -1t8.5 -1h34q11 0 17 2h2h6q22 4 31 8 q1 0 2 1t2 1q2 0 4 2l12 8q4 4 6 4l2 4l2 3q1 1 3 4t3 4v4q3 6 3 10l2 9v1v11q0 -1 -2 8q0 5 -3 8q-2 14 -10 47t-25.5 98.5t-25.5 98.5q-200 782 -203 794q-3 14 4.5 27t22.5 16q5 1 9 1q9 0 16 -4q13 -7 18 -21q9 -21 18 -45q4 -12 -2 -21q5 -20 15.5 -60t15.5 -61 q34 -132 101.5 -396t101.5 -396q20 -83 20 -101q0 -47 -28 -86q-40 -47 -129 -55h-11q-46 0 -145 19q-71 14 -174 47q-181 66 -324 163q-18 12 -27.5 19.5t-21.5 21.5t-18 29z" />
<glyph unicode="k" horiz-adv-x="1179" d="M113 1309q0 13 11 23q12 11 26 11q30 0 34 -36q5 -53 14.5 -160t14.5 -160q54 -529 78 -733q20 3 33 -10q10 -10 10 -24.5t-10 -26.5q-5 -6 -35 -41q-7 -9 -21 -10h-3q-11 0 -19 5q-16 8 -19 31q-23 202 -34 320q-80 694 -80 811zM328 563q16 38 55 72q58 46 74 57 q143 104 317 152q5 1 10 1q10 -1 18 -5q12 -8 17 -21q3 -14 -4 -27t-20 -16q-31 -8 -113 -39q-2 -1 -10 -4.5t-15 -5.5l-24 -12q-29 -14 -49 -27q-56 -29 -101 -63q-2 -2 -6 -5.5t-6 -5.5q-2 0 -8 -6q-15 -10 -21 -16q-3 -3 -16.5 -15.5t-19.5 -19.5q-5 -6 -7 -8q0 -4 -2 -4 l-2 -6v-2v-7l2 -2v-2l2 -2q0 -1 2 -3t2 -3l5 -2q2 -1 5 -3t5 -3q4 -4 6 -4h2q3 -1 8 -3t8 -3q46 -13 86 -21l99 -18q202 -31 393 -37q14 0 24.5 -11t10.5 -26q0 -13 -10.5 -24t-24.5 -11q-137 3 -318 27q-76 9 -153 24q-4 1 -78 17q-48 10 -59 14q-46 16 -66 41 q-23 28 -23 59q0 14 5 29z" />
<glyph unicode="l" horiz-adv-x="557" d="M156 641q-13 97 -13 192q0 261 97 508q13 28 36 28q4 0 9 -1q13 -5 20.5 -18.5t3.5 -26.5q-48 -123 -71 -248q-9 -47 -11 -65v-2q0 -2 -2 -2v-9q0 -2 -1 -6.5t-1 -7.5q0 -5 -1 -15.5t-1 -15.5q-6 -65 -6 -127q0 -81 10 -176q0 -1 1 -4t1 -4v-10q1 -4 2 -11t2 -10 q3 -23 9 -43q2 -13 5 -27.5t7 -31.5t6 -27q22 -88 55 -168q4 -8 6 -10l3 -6q1 -3 4 -10.5t4 -10.5q6 -16 16 -32q2 -3 5 -9.5t5 -9.5l4 -4t5 -4q2 -4 6 -8l4 -2q1 -1 6 -4t8 -4q12 -5 15 -21q1 -6 1 -10q0 -10 -4 -18q-11 -18 -29 -18q-9 0 -20 5q-45 20 -82 96 q-29 64 -53 136q-42 128 -61 272z" />
<glyph unicode="m" horiz-adv-x="1566" d="M104 1014q2 15 12 26t25 11q14 0 25 -11t10 -26v-8q-4 -94 -4 -186q0 -112 6 -218q1 -47 15 -201q1 -8 3 -24.5t3 -24.5q88 218 233 391q12 18 29 35q17 21 33 19q14 0 22 -2q40 -9 70 -39q12 -11 22 -23.5t20 -30t15 -26t17 -32t14 -28.5q26 -53 79.5 -159.5 t80.5 -159.5q49 53 69 82q5 3 8 8q2 4 4 4q2 3 5.5 8.5t5.5 8.5q16 20 22 30q18 23 43 64q41 63 80 137q5 14 17 37t16 33q3 6 5 11t4 10.5t3 8.5q5 10 14 37q8 19 25 25q24 4 35 -10q56 -67 84 -160q16 -50 33 -146t22 -120q2 -7 5.5 -20t6.5 -24t7 -20q2 -12 10 -31 q0 -1 1 -3t1 -3l2 -2q1 -2 3 -7t3 -7q10 -22 33 -53q0 -3 2 -5l4 -4q8 -8 10 -12q4 -4 12 -10.5t11 -9.5q12 -9 12 -25q0 -18 -12 -27q-10 -10 -23 -10h-1q-14 0 -25 10q-62 52 -101 144q-12 30 -21.5 66.5t-14 60.5t-12.5 71t-11 64q-23 97 -35 129l-6 18l-2 4q0 1 -1 2.5 t-1 2.5q-2 4 -6 13t-6 13q-120 -274 -324 -481q-10 -12 -29 -9.5t-26 17.5q-26 52 -79.5 157.5t-80.5 157.5q-5 11 -16.5 34.5t-18 37t-17 32.5t-20.5 34q-1 2 -4.5 7t-5.5 7v2l-4 4q-2 2 -6 6.5t-7.5 8t-7.5 6.5l-2 2l-8 4l-8 4q-2 2 -4 2q-26 -31 -84 -109 q-42 -59 -84 -137q-25 -41 -37 -71q-3 -6 -9 -18.5t-9 -18.5q-4 -11 -9 -19l-2 -6q0 -1 -1 -3t-1 -3q-30 -74 -51 -150q-3 -11 -13 -18.5t-22 -7.5q-11 0 -22 8t-12 18q0 3 -1.5 8.5t-1.5 8.5q-47 309 -47 623q0 93 4 186z" />
<glyph unicode="n" horiz-adv-x="972" d="M53 715q0 14 10 24.5t25 10.5t26 -10.5t11 -24.5q-2 -32 -1.5 -64.5t1.5 -64.5q3 -65 14 -121q7 -48 29 -123q2 -6 5 -18.5t5 -18.5q52 113 113 207q8 12 24.5 34.5t24.5 33.5q40 50 51 61q66 66 135 74q9 1 17 1q34 0 64 -20q37 -25 57 -67q17 -32 34 -86 q6 -15 17.5 -47t17.5 -47q14 -39 63 -174.5t76 -208.5q1 -5 1 -10q0 -9 -4 -17q-7 -14 -21 -19q-5 -1 -9 -1q-23 0 -36 28q-68 182 -109 301q-26 68 -57 154q-6 18 -27 71q0 1 -1 4.5t-1 4.5v2l-6 12q-5 10 -14 22q-4 5 -4 7l-6 6q-3 0 -3 2h-2q-1 1 -3 2t-3 2q-3 -1 -4 2 q-2 2 -6 2q-4 2 -8 2h-2h-12h-7q-4 0 -12 -4q-1 0 -4 -1t-4 -1h-2v-2q-14 -5 -19 -8q-3 -2 -9 -6.5t-9 -6.5q0 -2 -2 -2q-1 -1 -4 -3t-4 -3q-5 -5 -14.5 -14t-14.5 -14q-17 -20 -49 -64q-50 -70 -96 -154q-43 -82 -72 -161q-12 -27 -35 -27q-25 0 -31 18q-96 219 -96 459 q0 33 2 66z" />
<glyph unicode="o" horiz-adv-x="894" d="M63 588q3 160 91 307q8 11 22 15l8 2q9 0 17 -5q11 -6 14.5 -19.5t-2.5 -25.5q-4 -9 -14 -24.5t-13 -22.5q-2 -4 -6 -13.5t-6 -13.5v-4h-2q-4 -8 -4 -12q-23 -66 -27 -102q-4 -8 -4 -23q0 -4 -4 -6v-6v-39q-1 0 -1 -37l1 -37l4 -12v-6q0 -11 4 -17l6 -36q15 -36 15 -37 t1 -3t1 -3l2 -7q2 -4 6 -16q20 -40 37 -57l4 -6q2 -5 4 -5q1 -1 4 -3.5t5 -4.5t3 -4q4 -4 11.5 -12t11.5 -12q5 -9 12 -13q4 -2 4 -4h4q15 -11 27 -16q44 -27 53 -31q1 0 4 -2t4 -2h7q3 -2 8 -4t8 -4q5 -2 15.5 -4t11.5 -2q28 -8 34 -9h2h7q4 -4 16 -4q41 0 59 4h9q3 3 8 3 q2 1 7 2t7 2q24 6 29 8q2 0 4 2t4 2h2q3 2 7 4t7 4q18 7 27 14q2 1 14 13l4 2q4 4 7 4q3 4 6.5 7.5t8 7.5t7.5 7q7 5 14 15q0 1 2.5 3t2.5 3q4 2 4 4q1 2 6.5 11.5t7.5 15.5q12 20 16 30v2v2q2 1 6 9q5 10 5 16q9 26 10 35v14v4q4 0 4 6v39v15q0 4 -4 8q0 22 -6 37 q-1 3 -2 8.5t-2 7.5l-5 10q-2 2 -2 4q-5 9 -15 28t-15 28l-4 2v4q-2 1 -4.5 3t-4.5 3q0 7 -10 10q-4 5 -24 25q-6 6 -9 6h-2v2q-2 1 -6.5 4.5t-7.5 5.5q-15 12 -29 17q-15 10 -16 12h-8l-4 4q-5 0 -29 6q-18 5 -35 8h-2h-10q-8 2 -16 2q-14 0 -25.5 11t-11.5 24t11.5 24 t25.5 11q79 -1 153.5 -42t122.5 -107q44 -60 58 -134q5 -29 6 -58q0 -45 -13 -89q-17 -73 -64 -133t-112 -90q-77 -36 -158 -36q-54 0 -110 16q-139 41 -225 155q-87 124 -87 275v20z" />
<glyph unicode="p" horiz-adv-x="733" d="M78 532q0 149 4 193q7 106 57 166q9 12 24 12q1 0 1 -1q17 0 26 -11q10 -11 9.5 -24.5t-9.5 -24.5l-2 -2q0 -1 -1 -2t-1 -2q-1 -1 -3 -4.5t-3 -4.5q-1 -3 -2.5 -6l-3 -6t-2.5 -4v-2l-2 -4q-1 -2 -2 -5t-2 -5q-4 -12 -4 -19q-1 -4 -3 -11t-3 -11v-6v-7q-4 -28 -4 -41 q0 -12 -1 -36t-1 -37q28 31 69 49q73 31 152 31q164 -3 276 -115q10 -10 10 -23q0 -6 -2 -12q-38 -118 -157 -199q-81 -52 -262 -106q-13 -4 -27 3t-19 21q-3 14 4.5 28t22.5 18q91 27 127 40q3 1 8 3.5t8 3.5q1 1 4 2t5 2h2q14 6 28 14q29 11 58 31q4 3 11 8t11 8q0 1 4 4 q2 0 4 2q2 1 5.5 4.5t5.5 4.5q25 22 39 40q1 1 3 3.5t3 3.5l2 2q1 1 3 4t3 4q3 4 8 12t8 12q1 1 2.5 4t2 4.5t2 4.5t2 5t0.5 4.5t-0.5 4t-1.5 3.5t-3.5 4t-5.5 3l-4 4q-6 6 -12 9q-5 3 -14.5 9t-14.5 9q-8 3 -16 8q-1 0 -4 1t-4 1v2q-33 13 -66 19l-18 4h-2h-7q-10 2 -30 2 q-23 0 -33 -2h-10h-6q-4 -2 -11 -2q-7 -1 -17.5 -4t-14.5 -4q-3 -1 -15 -7q-6 0 -8 -2h-2q-5 -2 -14.5 -7t-14.5 -7l-6 -6q-1 0 -3 -2t-3 -2q-1 -1 -4 -3t-4 -3q-3 -3 -6 -9q1 -1 -2 -4q-1 -1 -3 -4t-3 -4q-6 -6 -3 -6q-2 0 -2 -2q-1 -2 -2 -7t-2 -7q-1 -10 -11.5 -17.5 t-22.5 -7.5q2 -6 2 -16q2 -161 28 -404q4 -27 8 -73h13q14 0 24.5 -10t10.5 -25q0 -150 -3 -297q0 -15 -10 -26t-24 -11q-11 0 -22.5 8t-12.5 19q-41 267 -60 448q-23 221 -26 403z" />
<glyph unicode="q" horiz-adv-x="1122" d="M94 352q6 174 123 338q122 170 270 178h10q71 0 133 -38q68 -40 87 -111q3 -15 -4 -27.5t-21 -17.5q-15 -3 -28 4t-17 20q-1 3 -2 8.5t-2 8.5q-1 1 -2 3t-2 3q-1 4 -4 8.5t-4 5.5l-2 2q0 4 -4 4q-5 10 -13 13q-1 1 -2 3t-2 3l-4 2q-8 6 -24 14q-1 1 -4.5 3t-4.5 3h-2 q-2 1 -7 3t-7 3q-3 1 -14.5 3.5t-18.5 3.5h-2q-2 0 -4.5 1t-3.5 1h-16q-11 0 -17 -2h-6h-2q-10 -1 -39 -11q-1 -1 -3 -2t-3 -2l-4 -2q-12 -4 -16 -8q-27 -13 -35 -20q-5 -5 -6 -5l-5 -4q-6 -4 -14 -12q-28 -25 -55 -59q0 -2 -2 -2q0 -2 -2 -2q-3 -6 -6 -9q-1 -3 -2.5 -5.5 t-4.5 -5.5t-4 -5q-5 -6 -12 -18.5t-10 -16.5q-30 -54 -41 -80l-2 -2q0 -4 -2 -6q0 -2 -4 -10q-1 -3 -3 -9.5t-3 -9.5q-1 -5 -6.5 -19t-6.5 -21q-8 -32 -10 -48q1 2 0 -4q0 -2 -1 -5t-1 -5q0 -3 -1 -10t-1 -10v-43q0 -4 1 -11t1 -10v-8v-2q0 -2 2 -2q2 -28 18 -78 q1 -1 2.5 -4t2.5 -4l2 -6q1 -3 8 -17q9 -19 20 -32q5 -10 6 -11l4 -6q2 -2 5.5 -6t5.5 -6q4 -5 26 -27q1 -1 4.5 -3t4.5 -3l4 -2q8 -8 14 -10q15 -12 29 -17q8 -4 10 -6h2q12 -4 16 -6q13 -4 35 -8q12 -4 19 -4q1 0 3 -1t3 -1h4q12 -2 35 -2q27 0 39 2h8l6 2q10 0 14 2 q32 5 72 18q8 4 10 4q1 1 3 2q3 1 3 2q3 0 13 5q12 6 32 18q24 14 31 20q2 1 3.5 2t2.5 2t2 1v2h2q2 2 7.5 6t7.5 6q34 30 55 57q3 2 8 11l4 4q2 2 10 14q1 1 3.5 4t3.5 4q-19 126 -25 219q-3 32 -3 66q0 67 9 142q12 116 53 212q5 14 23 17q5 1 10 1q10 0 17 -4 q95 -45 114 -186q4 -28 4 -57q0 -42 -8 -86q-12 -77 -37 -158q-32 -100 -82 -182q3 -17 9.5 -52t9.5 -53q11 -61 59 -307q6 0 10 -2q14 -3 21.5 -16.5t3.5 -26.5q-2 -11 -16 -65q-8 -25 -37 -26h-2q-26 0 -31 26q-66 333 -84 434q0 2 -1 5t-1 5q-8 -10 -25 -27 q-119 -119 -280 -137q-25 -2 -48 -2q-142 0 -241 88q-61 56 -93 137q-28 75 -28 153v15zM838 469q1 -15 3 -46t3 -46q5 -40 6 -47v-8q4 8 6 14q4 8 4 10q2 6 7 18.5t7 18.5q19 58 23 78q12 56 16 80q5 15 5 20q0 4 2 6v4q0 5 1 16.5t1 16.5q2 18 2 35t-2 35q0 1 -1 3.5 t-1 4.5v4q0 2 -1 7t-1 7q-2 5 -5.5 15.5t-5.5 15.5q0 2 -1 5t-1 5v2q-1 2 -4 6.5t-4 6.5l-6 12q-4 4 -6 8q-6 6 -8 10v-2q-9 -24 -15 -45q-13 -49 -18 -90v-10q-2 -4 -2 -10q0 -4 -1 -11.5t-1 -11.5q-2 -16 -2 -47q-2 -23 -2 -46t2 -44z" />
<glyph unicode="r" horiz-adv-x="923" d="M154 782q-1 4 -1 8q0 8 4 16q6 12 19 17q5 2 10 2q19 0 33 -26q17 -33 20.5 -42.5t2 -14t2.5 -23.5q0 -2 16 -49q12 9 25 17.5t30 16t27 11.5t31 11.5t28 10.5q177 58 349 84q12 3 24.5 -3t16.5 -19v-6q0 -11 -5 -21q-7 -14 -20 -14q-92 -14 -227 -47q-83 -25 -109 -35 q-31 -10 -55 -21q-21 -7 -25 -8h-2q0 -2 -2 -4q-2 0 -6 -1t-6 -1q-7 -10 -19 -10l-6 -6l-4 -4q-2 -1 -5.5 -5.5t-4.5 -5.5q1 -1 -2 -4q-4 0 -4 -4h-2q41 -103 86 -199q86 -176 164 -305q14 -25 -11 -47q-9 -4 -17 -4q-17 0 -30 19q-138 215 -201.5 351.5t-123.5 364.5z" />
<glyph unicode="s" horiz-adv-x="669" d="M125 768q11 41 39 72t67 41q18 6 38 6q17 -1 37 -5q40 -10 63 -38q22 -29 0 -51q-10 -10 -26 -10.5t-26 10.5l-12 12q-1 1 -3 2t-3 2l-6 2q-2 0 -4.5 1t-3.5 1h-9h-14h-2q-2 0 -6 -1t-6 -1q-4 -4 -8 -4q-8 -3 -19 -10l-4 -4q0 -1 -8 -9q-1 -1 -2 -3t-2 -3q-1 -2 -3 -5 t-3 -5v-2v-2q-2 -2 -2 -6q-4 -8 -4 -15l-3 -6v-2v-12v-16q0 -6 3 -7v-4q1 -4 3 -13t3 -13q3 -9 6 -15q0 -4 2 -4q0 -4 2 -6q2 -6 7.5 -15.5t6.5 -11.5q2 -2 5.5 -7t4.5 -7q5 -5 5 -6h2q15 -20 20 -25q17 -19 61 -70t66 -75q32 -32 64 -72q5 -6 16 -18.5t16 -18.5 q3 -4 8.5 -11.5t9.5 -14t7 -12.5q12 -21 12 -47v-6q-2 -30 -24 -50q-34 -27 -86 -37q-51 -13 -106 -13q-45 0 -91 9q-14 3 -22.5 17.5t-4.5 27.5q25 58 66 99q9 10 24.5 9.5t24.5 -9.5q11 -11 11 -26t-11 -26q-2 -3 -7 -9t-7 -9l-2 -2l-4 -4q-2 -2 -2 -4h20h37q6 2 18 2 q9 2 11 2q30 5 67 18q4 2 6 2q1 0 2 1t2 1l5 5q0 -1 -1 -3q0 2 3 2v2v5q0 1 -1.5 3t-1.5 3q0 2 -2 4q-4 8 -8 14q-1 1 -2 3t-2 3l-2 2q-6 9 -12 15q-32 40 -47 55q-25 28 -101 104q-65 62 -116 152q-35 61 -35 122q0 25 6 50z" />
<glyph unicode="t" horiz-adv-x="847" d="M55 885q5 38 58 51q15 3 103.5 19.5t100.5 17.5q-13 39 -16 51q-27 94 -51 186q0 4 -3 17.5t-3 19t2 17.5q6 18 20 26q11 8 22 8q6 0 11 -2q31 -16 31 -43q-4 -14 -11 -24q3 -3 3 -6q2 -7 5 -20.5t5 -20.5q7 -31 22 -82q9 -34 35 -115q24 3 182 28t168 27q36 7 45 -24 q1 -4 1 -8q0 -10 -5 -20q-7 -14 -20 -17q-23 -3 -178 -28.5t-170 -27.5q14 -39 101 -361.5t112 -377.5q14 -32 -13 -49q-8 -4 -18 -4q-6 0 -10 1q-16 3 -21 15q-7 15 -14.5 41t-11.5 37q-20 46 -103 351.5t-94 336.5q-6 -1 -95 -17.5t-98 -17.5q-18 -6 -24 -6 q-3 -13 -17 -20t-26 -2q-14 3 -21 16q-5 9 -5 19q0 4 1 8z" />
<glyph unicode="u" horiz-adv-x="964" d="M39 793q10 21 32 21q3 0 9 -1q30 -5 39 -29q5 -7 8 -20q0 -10 2 -16v-3l6 -36q2 -11 4.5 -23.5t6.5 -28t6 -24.5q7 -28 22 -72q20 -70 39 -127l4 -6q0 -4 2 -6q2 -4 6 -16q6 -11 17.5 -34t17.5 -34q17 -28 19 -31q8 -12 10 -14q0 -4 4 -4q0 -2 2 -2q8 -13 24 -29l5 -2 q4 -2 8 -6q4 0 8 -4q4 -2 6 -2q2 -1 7 -2t7 -2h5h10h4q6 0 6 2q4 0 16 4h2q2 2 5 2l8 4q2 2 7 5t7 5q1 0 4 2l6 6q2 2 7.5 6.5t7.5 6.5q10 10 14 16l8 8v2h2q2 3 10 14.5t11 18.5q24 38 43 80q2 4 5 11t5 11l2 7q1 1 2 4.5t2 5.5q5 11 14 41q8 22 31 143q4 18 4 49.5v38.5 q2 14 11.5 24.5t23.5 10.5q15 0 26 -10.5t11 -24.5q0 -21 4 -71q4 -20 4 -33v-2l2 -2v-9q0 -2 2 -36.5t2 -36.5q14 -80 29 -133q31 -109 72 -195q11 18 30 18q15 0 26 -10.5t11 -25.5q-3 -58 -51 -86q-8 -4 -17 -4q-5 -1 -11 1q-15 4 -21 17q-88 164 -125 340 q-6 -20 -29 -72q-33 -75 -67 -119q-52 -67 -99 -88q-38 -18 -74 -18h-10q-45 6 -84 37q-48 38 -98 139q-19 38 -49 125.5t-43 138.5q-11 40 -21 88q-1 6 -2 17t-2 16q-11 5 -18 16q-6 13 -6 26q0 11 4 22z" />
<glyph unicode="v" horiz-adv-x="735" d="M86 797q-1 4 -1 8q-1 9 5 19q8 14 23 16q5 1 9 1q8 -1 16 -5q12 -8 18 -21q63 -185 141 -346q60 -122 86 -164q1 -2 23 -35l4 -4l2 -4q4 -6 12 -14q2 -2 7 -7.5t7 -7.5q2 0 4 -2.5t4 -3.5q4 -4 7 -4q4 4 4 6q9 12 20 33q13 22 17 33q4 4 4 8v2q2 0 2 2q5 15 6 17 q18 56 22 73q1 6 3.5 18.5t3.5 18.5q1 4 2 11t2 10v6l2 6q6 55 6 121q0 86 -10 192q-1 15 9.5 26t24.5 11q15 0 25 -11t12 -26q10 -113 11 -218v-6q1 -102 -31 -210q-32 -110 -99 -194q-12 -12 -23 -12q-6 0 -11 3q-5 1 -13 4.5t-10 4.5q-64 36 -113 120q-26 42 -86 164 q-84 173 -147 361z" />
<glyph unicode="w" horiz-adv-x="1181" d="M80 838q0 13 10.5 23.5t24.5 10.5q15 0 26 -10t11 -24q0 -39 4 -121q1 -5 2 -14.5t2 -14.5q0 -10 2 -16v-6v1v-3q2 -10 5 -30t5 -30q19 -108 66 -227q19 -50 32 -78q7 -14 21 -35q0 -2 4 -6l4 -6l10 -10q0 -1 8 -9l17 -10q2 0 7 -1t7 -1h4h4h2q1 0 4.5 1t4.5 1l4 2 q1 0 3 1t3 1q4 4 8 6h2v3q2 2 7 6t7 6q1 1 4 4.5t5 5.5l4 4q1 2 4 6t4 6q6 9 20 37q10 21 11 23l2 2v2q1 2 2 5t2 5q2 7 7 20.5t7 20.5q2 8 5 23t5 22v10l2 7q0 3 1 9t1 9v2q-2 29 -2 86q0 15 11 26t26 11q14 0 23.5 -10.5t11.5 -26.5q3 -22 3 -50q0 -16 -1 -34v-10 q2 -4 2 -14v-5q2 -2 2 -8q6 -32 17 -65q5 -15 6 -17q0 -1 1 -5q2 -4 1 -3q7 -17 14 -29q1 -2 4 -7t4 -7l6 -6q0 -2 2 -4q4 -6 17 -19q2 -2 6 -5t6 -5q2 0 2 -2q2 0 6 -4q2 -1 6.5 -3t6.5 -3q1 -1 6 -3l4 -3q23 -8 37 -10h2h2h10h21h10l6 2q4 1 10.5 2t9.5 2q12 3 21 6 q2 1 5 2t5 2l6 2q29 13 64 37l6 4l4 4q4 2 12 10l23 23q8 8 12 14q4 4 4 6l4 4q3 3 5.5 6.5t6 8.5t5.5 8q14 21 30 57l2 6q4 8 5 9q1 3 2 8t2 8q2 5 5 15.5t5 15.5q2 10 6 34q0 5 2 7v2q0 12 2 16q0 45 -2 68v10v2q-1 3 -2 8t-2 8q-1 5 -3 15.5t-3 15.5q-2 5 -6 16.5 t-6 16.5q0 4 -2 6q-1 2 -3 2q-1 3 -3 8t-3 8q-6 12 -2.5 27.5t15.5 22.5q12 6 27.5 2t21.5 -17q34 -63 43 -141q3 -25 3 -49q0 -72 -24 -144q-32 -96 -103.5 -169.5t-166.5 -98.5q-39 -11 -75 -11q-54 0 -99 25q-57 28 -96 97q-3 5 -8.5 15t-8.5 15l-12 -30 q-38 -74 -78 -105q-39 -31 -81 -31q-25 0 -50 11q-61 28 -100 121q-49 106 -68 180q-53 176 -53 377z" />
<glyph unicode="x" horiz-adv-x="1069" d="M94 838q0 14 10 24q9 10 25.5 10t26.5 -10q76 -82 157 -166q154 -149 209 -200q175 164 365 286q12 7 26.5 3.5t22.5 -15.5q4 -9 4 -17q0 -5 -2 -11q-4 -14 -16 -21q-15 -10 -44.5 -31t-43.5 -31q-7 -5 -21.5 -15t-21.5 -15q-3 -2 -8 -5.5t-8.5 -6t-6.5 -5.5q-2 -1 -5 -4 t-5 -4l-4 -4q-97 -75 -179 -151q2 -2 6 -5.5t6.5 -6t4.5 -5.5q24 -21 72 -62.5t73 -62.5q36 -30 39 -33l8 -6h2q4 -4 7 -4l2 -2h6q11 19 30 19q15 0 25 -11t10 -26q2 -19 -9 -34.5t-30 -19.5q-24 -5 -55 5q-12 5 -59 38q-40 36 -56 48q-115 100 -133 116l-30 -30 q-120 -126 -222 -265q-8 -12 -22 -16q-5 -2 -10 -2q-8 0 -17 4q-11 8 -15.5 23t3.5 26q80 113 143 185q68 75 117 124q-191 176 -367 367q-10 11 -10 25z" />
<glyph unicode="y" horiz-adv-x="1253" d="M97 523q0 87 34 165q5 13 17 21q8 5 17 5q4 0 9 -1q13 -5 22 -18.5t3 -26.5q-21 -57 -25 -86q0 -2 -1 -6t-1 -5v-6q-2 -8 -2 -20q-3 -19 0 -39v-23q0 -1 1 -5t1 -5v-2q4 -26 8 -39l13 -39q0 -1 2 -5v-1q1 -1 2 -3t2 -3q1 -3 4 -9.5t4 -9.5q2 -4 22 -34q2 -4 4 -4l3 -5 q4 -6 12 -14q5 -4 14 -13t14 -13q1 -1 3.5 -2.5t3.5 -2.5q2 -2 4 -2q8 -8 14 -10q8 -7 35 -20q2 0 6 -4l6 -2q2 -1 7 -2.5t7 -2.5q23 -8 37 -10q3 -1 9.5 -2t9.5 -2h2h8q12 -2 39 -2q2 0 7 1t7 1h4q4 2 11 2q12 2 36 10q1 1 4.5 2t4.5 2q4 1 4 3q6 2 14 6q5 3 16.5 9t16.5 9 q2 2 14 10q0 2 2 2q4 4 6 4q29 25 54 54q4 4 12 16l6 6l2 2q4 5 11.5 15.5t11.5 15.5q20 28 77 131q46 83 97 176q12 21 35.5 17.5t29.5 -25.5q17 -52 33 -115q52 -188 90 -385q18 -93 33 -194q25 -165 27 -199q2 -17 2 -33q0 -84 -54 -129q-55 -44 -151 -55 q-80 -11 -163 -11q-115 0 -235 21q-13 1 -21 16t-3 27q3 14 16 21t27 4q27 -3 51 -6q92 -12 168 -12q16 0 31 1q39 0 100 7q3 0 12 1t15 1l8 2q5 1 35 6l18 6l8 4q1 0 3.5 1t3.5 1q16 8 24 14h2q0 1 1 2.5t1 2.5q1 1 3 2t3 2q8 8 6 8q8 9 11 16v2h2q0 2 1 6t1 5q2 4 2 14 q2 0 2 2v20q0 29 -2 43q-2 16 -12 88q-50 352 -144 691q-9 -18 -27.5 -52t-27.5 -51q-32 -58 -52.5 -91.5t-56 -79.5t-71.5 -77q-68 -58 -138 -77q-37 -10 -77.5 -10t-83.5 10q-78 21 -142 73.5t-96 124.5q-36 80 -36 171z" />
<glyph unicode="z" horiz-adv-x="1353" d="M72 700q0 12 8 23t18 12q210 53 426 53q144 -5 189 -12q92 -15 131 -67q24 -37 24 -74q0 -7 -1 -13q-5 -44 -33 -87q-7 -12 -16.5 -24t-22.5 -27t-19 -23q-2 -3 -7 -9.5t-7 -9.5q-1 -1 -2 -3t-2 -3h92q15 0 26 -11t11 -26q0 -14 -11 -24t-26 -10q-90 0 -137 2v-2 q-9 -22 -11 -35v-4v-9q-3 -9 0 -18v-2v-2v-6q4 -8 7 -17q0 -2 2 -4q0 -2 4 -6q0 -1 1 -2l1 -2q4 -4 4 -6l8 -6l2 -2q3 -2 9.5 -5.5t9.5 -5.5q1 -1 4.5 -2t5.5 -2l4 -2q3 -1 10 -4t10 -4q7 -2 21.5 -7t21.5 -7q95 -28 189 -43q6 -1 20.5 -3t24.5 -3q7 -1 22.5 -2t22.5 -2 q33 -2 96 -2q15 0 26 -11t11 -26q0 -14 -11 -24.5t-26 -10.5h-18q-197 0 -389 63q-29 9 -44.5 15t-39.5 18t-40 28t-26 36q-15 34 -15 73q0 30 9 62q-18 11 -18 30q0 14 10.5 24.5t25.5 10.5h15q5 9 28 41q4 5 29 35q2 3 6 8t6 8q1 1 3.5 4.5t3.5 4.5l2 2q2 0 2 2 q22 33 24 37q8 12 10 18q0 2 2 4v2l5 10q0 1 1 5t1 6v6v10v2v2q0 2 -1 4.5t-1 3.5l-2 4q-1 2 -3.5 5.5t-3.5 5.5q0 2 -2 2q-4 4 -4 6q-2 0 -4 2t-4 2q-4 4 -12 8l-8 4q-25 8 -35 10q-2 1 -8.5 2.5t-8.5 2.5h-8q-2 2 -4 2q-69 7 -138 7l-46 -1q-128 0 -287 -27q30 -39 30 -78 q0 -21 -9 -43q-5 -14 -16.5 -21t-26.5 -3q-13 3 -22 16.5t-3 26.5l4 14v10v2v2q-1 2 -2 5.5t-2 5.5v4q0 1 -3.5 6t-4.5 8q-1 0 -3 2t-3 2q0 1 -7 8q-1 0 -2 1t-2 1q-5 5 -8 5l-2 2h-2q-1 0 -4 1t-4 1h-4h-10q-14 -1 -25.5 10t-11.5 24z" />
<glyph unicode="{" horiz-adv-x="544" d="M24.5 863q-3.5 13 0.5 18q7 38 43 53q24 11 57 14q3 1 10 3t10 3q3 0 5 2q1 1 2 3t2 2v2q0 4 2 6v4q0 23 2 33q1 8 4 22t4 19v6l2 6q0 12 2 18q0 15 1 42t1 42q0 23 3 68t3 67q5 113 10 142q7 34 21 57q22 31 53 39q48 16 135 4q67 -10 115 -31q12 -7 15 -23t-3 -26 q-7 -13 -22 -17t-27 3q-2 2 -4 2q-1 1 -4 2t-4 2q-20 5 -23 6q-9 2 -28.5 6t-28.5 6h-2h-6q-3 0 -9 1t-8 1h-28h-27h-4l-2 -2q-6 0 -10 -2q-6 0 -8 -2q-3 0 -5 -2q-2 0 -2 -2q-4 -4 -4 -6q0 -1 -1 -2t-1 -2q0 -2 -2 -2q0 -2 -1 -6t-1 -6q-2 -5 -4 -15.5t-2 -11.5v-6 q-2 -2 -2 -8v-17q-2 -10 -2 -32q0 -43 -2 -66q0 -23 -4 -63q-2 -27 -2 -80q-1 -14 -2 -41t-2 -41q-3 -23 -9 -43l-2 -12v1q-2 -6 -2 -14q0 -29 -4 -43q-5 -15 -8 -18q-1 -2 -4 -6.5t-4 -6.5q3 4 4 4l-8 -8q-15 -20 -53 -28q-29 -4 -48 -9q-2 -2 -4 -2q0 -2 -2 -2v-2l2 -2 q7 -14 11 -20q11 -18 32 -47q3 -4 15 -21t17.5 -25t12.5 -22.5t11 -26.5q6 -18 6 -38q4 -28 4 -41q0 -59 -2 -88q-5 -128 -4 -154q4 -68 8 -102q0 -11 2 -17v-6q1 -4 2 -12.5t2 -12.5q2 -16 10 -53q8 -33 15 -51q1 -4 4 -12.5t4 -12.5q2 -2 2 -6q2 -2 6 -10q8 -18 23 -41 q4 -4 4 -6l6 -6q3 -3 8 -8.5t8 -8.5l4 -4l6 -4q11 -7 19 -10q2 -2 4 -2h2q4 -4 10 -4q8 -4 17 -4q8 0 10 -2h12q4 0 11.5 1t11.5 1h4q2 2 8 2q2 0 14 4q18 4 29 8q13 4 26.5 -4t18.5 -21q3 -15 -4 -27.5t-21 -17.5q-83 -28 -147 -12q-59 14 -102 64q-61 69 -86 194 q-20 102 -23 215q-1 24 0 52t3 62t3 52q0 59 -2 88q0 15 -2 21v6q0 1 -1 3t-1 3v4l-2 4q-9 17 -61 92q-2 4 -10 16t-10.5 16t-9.5 16.5t-7.5 17t-4 17.5z" />
<glyph unicode="|" horiz-adv-x="231" d="M61 61q6 296 9 582q6 408 6 817q0 14 11 24.5t24 10.5q15 0 25.5 -10.5t10.5 -24.5q0 -98 -1 -293t-1 -293q-6 -405 -12 -813q0 -14 -10 -24t-25 -10t-26 10t-11 24z" />
<glyph unicode="}" horiz-adv-x="538" d="M-5 1480q3 16 15 23q48 21 115 31q87 12 135 -4q31 -8 53 -39q14 -23 21 -57q8 -45 8 -142q1 -22 4 -67t4 -68q0 -55 2 -84q2 -6 2 -18q0 -4 2 -6v-7q1 -5 4.5 -19t4.5 -22q2 -10 2 -32v-4q2 -2 2 -7v-2l4 -4l2 -2h2q3 -1 10 -3t10 -3q34 -3 58 -14q36 -15 43 -53 q-2 -13 0 -16t-3 -15t-5 -14.5t-7 -14.5t-8.5 -14t-9 -13.5t-8.5 -13.5q-57 -82 -62 -92q0 -2 -2 -4v-4q-2 -2 -2 -6v-6q-2 -6 -2 -21q-2 -29 -2 -88q1 -18 3 -52t3 -62t0 -52q-3 -119 -22 -215q-25 -125 -86 -194q-43 -49 -103 -64q-65 -16 -147 12q-14 5 -21 17.5t-4 27.5 q5 13 18.5 21t26.5 4q7 -4 29 -8q12 -4 14 -4q4 0 8 -2h5q4 0 11 -1t11 -1h12q2 2 11 2q8 0 16 4q6 0 10 4h2q2 0 4 2q10 4 17 10q6 0 6 4q1 1 3 2t3 2q3 3 8 8.5t8 8.5q1 1 3.5 3t3.5 3q0 2 4 6q12 19 22 41q4 8 4 10q2 2 2 6q2 4 5.5 12.5t5.5 12.5q4 10 14 51q2 9 5 26.5 t5 26.5q1 4 2 12.5t2 12.5v6q0 3 1 8t1 8q6 49 9 103q0 13 -5 153q-2 29 -2 88q0 7 1 20.5t1 20.5q4 24 9 39q7 26 55 95q25 35 31 47q8 12 12 20q0 2 2 2v2l-2 2q-2 0 -4 2q-19 6 -47 9q-39 8 -54 28l-8 8q1 0 4 -4q-1 2 -4 6.5t-4 6.5q-3 3 -8 18q-4 14 -4 43q0 2 -1 6.5 t-1 7.5l-2 10v1q-4 13 -8 43q-4 58 -4 82q0 39 -3 79q-4 40 -4 64q-2 23 -2 65q0 23 -2 33v17q0 2 -1 4.5t-1 3.5v6q-1 4 -3 13.5t-3 13.5q0 4 -4 12v2q0 1 -1 2t-1 2q0 2 -4 6q-2 2 -4 2l-2 2q-2 2 -8 2q-4 2 -11 2q-2 0 -2 2h-4h-26h-29q-3 0 -8.5 -1t-8.5 -1h-8 q-9 -2 -28.5 -6t-28.5 -6q-4 -1 -11.5 -3t-11.5 -3q-1 -1 -4 -2t-4 -2q-2 0 -4 -2q-13 -6 -27.5 -2.5t-21.5 16.5q-6 10 -3 26z" />
<glyph unicode="~" horiz-adv-x="968" d="M38.5 662q-4.5 15 4.5 26q53 73 121 92q56 16 129 6q29 -2 78 -10q6 -1 19.5 -3t19.5 -3h4q2 -2 6 -2q12 0 18 -2q105 -10 191 -10q61 0 92 4h14q1 1 3 1l-1 1h11h-4h6q2 2 8 2q12 4 16 4l8 4h2q12 5 27 16l4 3l2 2q8 8 12 10q10 10 50 55q9 12 25.5 11.5t25.5 -11.5 q22 -22 0 -51q-61 -70 -101 -92q-37 -18 -63 -23q-10 0 -16 -2q6 1 -1 1q-2 0 -6 -1h-4q-6 -2 -20 -2q-28 -4 -41 -4q-146 -5 -354 27q-3 1 -10.5 2t-10.5 2h-2h-8q-5 1 -16 2t-17 2h-35q-10 0 -14 -2h-4h-4q-4 -1 -12 -3.5t-14 -4.5t-7 -2t-4 -1t-4 -1q-6 -6 -12 -9 q-2 -1 -5.5 -3t-5.5 -3v-2h-2q-2 -2 -6 -5t-6 -5q-4 -6 -12 -14q-4 -4 -4 -7l-5 -4q-22 -29 -49 -14q-12 8 -16.5 23z" />
<glyph unicode="&#xad;" d="M246 688q0 15 11 26t26 11q112 0 368 25q110 20 121 20l25 8q0 8 -1 16t8.5 12.5t31.5 2.5q10 -1 26 -4t23 -4q12 -3 21 -12t9 -19q2 -11 -4 -23.5t-16 -15.5q-18 -4 -49.5 -13.5t-44.5 -12.5q-6 -2 -57.5 -8.5t-106 -13.5t-57.5 -7l-297 -23q-15 -1 -26 10t-11 25z" />
<glyph unicode="&#x2000;" horiz-adv-x="903" />
<glyph unicode="&#x2001;" horiz-adv-x="1807" />
<glyph unicode="&#x2002;" horiz-adv-x="903" />
<glyph unicode="&#x2003;" horiz-adv-x="1807" />
<glyph unicode="&#x2004;" horiz-adv-x="602" />
<glyph unicode="&#x2005;" horiz-adv-x="451" />
<glyph unicode="&#x2006;" horiz-adv-x="301" />
<glyph unicode="&#x2007;" horiz-adv-x="301" />
<glyph unicode="&#x2008;" horiz-adv-x="225" />
<glyph unicode="&#x2009;" horiz-adv-x="361" />
<glyph unicode="&#x200a;" horiz-adv-x="100" />
<glyph unicode="&#x2010;" d="M246 688q0 15 11 26t26 11q112 0 368 25q110 20 121 20l25 8q0 8 -1 16t8.5 12.5t31.5 2.5q10 -1 26 -4t23 -4q12 -3 21 -12t9 -19q2 -11 -4 -23.5t-16 -15.5q-18 -4 -49.5 -13.5t-44.5 -12.5q-6 -2 -57.5 -8.5t-106 -13.5t-57.5 -7l-297 -23q-15 -1 -26 10t-11 25z" />
<glyph unicode="&#x2011;" d="M246 688q0 15 11 26t26 11q112 0 368 25q110 20 121 20l25 8q0 8 -1 16t8.5 12.5t31.5 2.5q10 -1 26 -4t23 -4q12 -3 21 -12t9 -19q2 -11 -4 -23.5t-16 -15.5q-18 -4 -49.5 -13.5t-44.5 -12.5q-6 -2 -57.5 -8.5t-106 -13.5t-57.5 -7l-297 -23q-15 -1 -26 10t-11 25z" />
<glyph unicode="&#x2012;" d="M246 688q0 15 11 26t26 11q112 0 368 25q110 20 121 20l25 8q0 8 -1 16t8.5 12.5t31.5 2.5q10 -1 26 -4t23 -4q12 -3 21 -12t9 -19q2 -11 -4 -23.5t-16 -15.5q-18 -4 -49.5 -13.5t-44.5 -12.5q-6 -2 -57.5 -8.5t-106 -13.5t-57.5 -7l-297 -23q-15 -1 -26 10t-11 25z" />
<glyph unicode="&#x2013;" horiz-adv-x="1483" d="M246 688q0 15 17 26t40 11q171 0 562 25q169 20 186 20l38 8q0 8 -1.5 16t13 12.5t47.5 2.5q16 -1 40.5 -4t34.5 -4q19 -3 32.5 -12t13.5 -19q3 -11 -6 -23.5t-24 -15.5q-28 -4 -76 -13.5t-68 -12.5q-9 -2 -88 -8.5t-162.5 -13.5t-87.5 -7l-454 -23q-23 -1 -40 10t-17 25 z" />
<glyph unicode="&#x2014;" horiz-adv-x="2508" d="M246 688q0 15 33.5 26t79.5 11q343 0 1126 25q336 20 370 20l77 8q0 8 -3.5 16t26 12.5t96.5 2.5q30 -1 79 -4t71 -4q36 -3 63.5 -12t27.5 -19q7 -11 -11.5 -23.5t-49.5 -15.5q-55 -4 -151 -13.5t-136 -12.5q-19 -2 -176.5 -8.5t-324 -13.5t-175.5 -7l-909 -23 q-46 -1 -79.5 10t-33.5 25z" />
<glyph unicode="&#x202f;" horiz-adv-x="361" />
<glyph unicode="&#x205f;" horiz-adv-x="451" />
<glyph unicode="&#x25fc;" horiz-adv-x="870" d="M0 0v870h870v-870h-870z" />
</font>
</defs>
</svg>
